<svg width="22" height="22" viewBox="0 0 22 22" fill="none" xmlns="http://www.w3.org/2000/svg">
<path d="M15.5128 12.1283C15.5128 9.63609 13.4922 7.61548 11 7.61548C8.5078 7.61548 6.48718 9.63609 6.48718 12.1283C6.48718 13.2655 6.92154 14.2911 7.61539 15.0842V21.1539L11 20.0257L14.3846 21.1539V15.0842C15.0785 14.2911 15.5128 13.2644 15.5128 12.1283Z" fill="#B39EF9"/>
<path d="M18.8974 0H3.10256C1.39108 0 0 1.39108 0 3.10256V13.2564C0 14.9679 1.39108 16.359 3.10256 16.359H6.76923V21.1538C6.76923 21.4257 6.9001 21.6818 7.12123 21.8398C7.34236 22 7.62554 22.0417 7.8839 21.9571L11.0011 20.9181L14.1184 21.9571C14.2064 21.9853 14.2966 22 14.3857 22C14.5606 22 14.7344 21.9447 14.8799 21.8398C15.101 21.6807 15.2319 21.4257 15.2319 21.1538V16.359H18.8986C20.6101 16.359 22.0011 14.9679 22.0011 13.2564V3.10256C22.0011 1.39108 20.6089 0 18.8974 0ZM11 15.7949C8.97826 15.7949 7.33333 14.1499 7.33333 12.1282C7.33333 10.1065 8.97826 8.46154 11 8.46154C13.0217 8.46154 14.6667 10.1065 14.6667 12.1282C14.6667 14.1499 13.0217 15.7949 11 15.7949ZM13.5385 19.9794L11.2674 19.2224C11.0936 19.1648 10.9064 19.1648 10.7315 19.2224L8.46041 19.9794V16.8182C9.21969 17.2311 10.076 17.4872 10.9989 17.4872C11.9217 17.4872 12.7781 17.2311 13.5373 16.8182V19.9794H13.5385ZM20.3077 13.2564C20.3077 14.0337 19.6748 14.6667 18.8974 14.6667H15.6956C16.113 13.9119 16.359 13.0511 16.359 12.1282C16.359 9.17344 13.9548 6.76923 11 6.76923C8.04523 6.76923 5.64103 9.17344 5.64103 12.1282C5.64103 13.0511 5.88697 13.9119 6.30441 14.6667H3.10256C2.32523 14.6667 1.69231 14.0337 1.69231 13.2564V3.10256C1.69231 2.32523 2.32523 1.69231 3.10256 1.69231H18.8974C19.6748 1.69231 20.3077 2.32523 20.3077 3.10256V13.2564ZM17.4872 4.23077C17.4872 4.69785 17.1081 5.07692 16.641 5.07692H5.35897C4.8919 5.07692 4.51282 4.69785 4.51282 4.23077C4.51282 3.76369 4.8919 3.38462 5.35897 3.38462H16.641C17.1081 3.38462 17.4872 3.76369 17.4872 4.23077Z" fill="#251F47"/>
</svg>
