<svg width="28" height="24" viewBox="0 0 28 24" fill="none" xmlns="http://www.w3.org/2000/svg">
<path d="M11 5.05588V10.0661L8.02357 10.865C7.35274 11.045 6.64726 11.045 5.97643 10.865L3 10.0661V5.05588M1 4.04191L7 1L13 4.04191L7 7.08382L1 4.04191Z" stroke="#795DED" stroke-width="1.7" stroke-linecap="round" stroke-linejoin="round"/>
<path d="M25 19V9C25 6.79086 23.2091 5 21 5L15 5M25 19L5 19M25 19C26.1046 19 27 19.8954 27 21C27 22.1046 26.1046 23 25 23L5 23C3.89543 23 3 22.1046 3 21C3 19.8954 3.89543 19 5 19M5 19L5 15M9 15H11M17 15H19C20.1046 15 21 14.1046 21 13V11C21 9.89543 20.1046 9 19 9H17C15.8954 9 15 9.89543 15 11V13C15 14.1046 15.8954 15 17 15Z" stroke="#251F47" stroke-width="1.7" stroke-linecap="round"/>
</svg>
