<svg width="28" height="24" viewBox="0 0 28 24" fill="none" xmlns="http://www.w3.org/2000/svg">
<path d="M24.8333 12.0001V8.33342C24.8333 6.30837 23.1917 4.66675 21.1667 4.66675H13.8333M2.83334 12.0001V15.6667C2.83334 17.6918 4.47497 19.3334 6.50001 19.3334L13.8333 19.3334M8.33334 13.8334H12M13.8333 10.1667H21.1667" stroke="#251F47" stroke-width="1.7" stroke-linecap="round"/>
<path d="M1.72819 5.24422C0.757268 4.2733 0.757269 2.69912 1.72819 1.72819C2.69912 0.757269 4.2733 0.757269 5.24422 1.72819L8.75332 5.23729C9.39631 5.88028 9.7996 6.72415 9.89601 7.62835L10.1667 10.1667L7.62835 9.89601C6.72415 9.7996 5.88028 9.39631 5.23729 8.75332L1.72819 5.24422Z" stroke="#251F47" stroke-width="1.7" stroke-linecap="round" stroke-linejoin="round"/>
<path d="M24.8333 17.5511V22.1438L22.1049 22.8761C21.49 23.0412 20.8433 23.0412 20.2284 22.8761L17.5 22.1438V17.5511M15.6667 16.6217L21.1667 13.8333L26.6667 16.6217L21.1667 19.4101L15.6667 16.6217Z" stroke="#795DED" stroke-width="1.7" stroke-linecap="round" stroke-linejoin="round"/>
</svg>
