<svg width="155" height="44" viewBox="0 0 155 44" fill="none" xmlns="http://www.w3.org/2000/svg">
<path d="M15.4588 26.9121L17.431 22.8709H16.9856L15.9466 20.7981H15.1196V17.9065C11.7267 16.9137 8.05811 16.6349 5.49224 16.5479V34.7505C11.345 34.7854 17.2613 35.935 21.4388 40.9516C21.3964 39.8194 21.3752 38.4434 21.354 36.9627H20.4634L15.4588 26.9121ZM4.11388 35.8305V20.2058C3.49891 20.2232 0.827016 20.2232 0 20.2232V40.2201C7.12506 39.5581 15.162 39.5756 21.1419 43.7735C18.4064 37.3285 11.2814 35.7608 4.11388 35.8305ZM38.8698 34.9596V16.7569C36.3039 16.844 32.6353 17.1227 29.2425 18.1155V20.7806H28.4154L27.3764 22.8535H26.9311L28.9032 26.8946L23.9199 36.9105H23.0292C23.008 38.4956 22.9868 39.9588 22.9444 41.1433C27.1007 36.1615 33.017 35.0118 38.8698 34.9596ZM44.362 20.4497C43.535 20.4671 40.8631 20.4671 40.2481 20.4323V36.057C33.0595 35.9873 25.9556 37.555 23.2201 43.9999C29.2 39.802 37.2369 39.802 44.362 40.4465V20.4497Z" fill="#5F3EED"/>
<path d="M35.4548 13.5693L35.4124 7.75139L39.2506 6.2882L22.1377 0L5.13086 6.47982L12.9345 9.35393L12.9769 14.1789H31.4681L31.4894 9.2494L34.9246 7.94299L34.9671 13.5867C34.7126 13.6738 34.543 13.8654 34.543 14.1093C34.543 14.4228 34.8398 14.6667 35.2215 14.6667C35.6032 14.6667 35.9001 14.4228 35.9001 14.1093C35.9001 13.848 35.7093 13.639 35.4548 13.5693ZM16.1577 15.2589H28.1813V19.9272H27.6936L26.6545 22H25.361L27.736 26.9121L23.1768 36.057H22.6254V28.5495C23.1556 28.3927 23.5585 27.9747 23.5585 27.4695C23.5585 26.8424 22.9435 26.3373 22.1801 26.3373C21.4167 26.3373 20.8018 26.8424 20.8018 27.4695C20.8018 27.9573 21.1835 28.3927 21.7348 28.5495V36.057H21.1835L16.6243 26.9121L18.9993 22H17.7057L16.6667 19.9272H16.179V15.2589H16.1577Z" fill="#F4B826"/>
<path d="M56.1853 39V17.6747H69.2093V21.4293H58.796L60.2333 20.1093V27.12L58.796 26.1667H68.3V29.892H59.148L60.2333 28.88V36.5507L58.796 35.216H69.4147V39H56.1853ZM77.5888 39.1907C76.2786 39.1907 75.1639 38.8436 74.2448 38.1493C73.3355 37.4453 72.6461 36.4724 72.1768 35.2307C71.7075 33.9889 71.4728 32.5516 71.4728 30.9187C71.4728 29.1489 71.7564 27.6529 72.3235 26.4307C72.8906 25.2084 73.6533 24.2796 74.6115 23.644C75.5697 23.0084 76.6355 22.6907 77.8088 22.6907C78.7279 22.6907 79.4857 22.8471 80.0821 23.16C80.6786 23.4631 81.1381 23.8493 81.4608 24.3187C81.7835 24.788 81.9937 25.2524 82.0915 25.712L82.8541 26.5627L81.9008 27.7067C81.8128 27.3938 81.6515 27.1151 81.4168 26.8707C81.1919 26.6164 80.8839 26.416 80.4928 26.2693C80.1115 26.1227 79.6324 26.0493 79.0555 26.0493C77.9897 26.0493 77.139 26.4453 76.5035 27.2373C75.8679 28.0293 75.5501 29.2809 75.5501 30.992C75.5501 32.576 75.8484 33.7884 76.4448 34.6293C77.0413 35.4604 77.8626 35.876 78.9088 35.876C79.5053 35.876 80.0137 35.7831 80.4341 35.5973C80.8644 35.4018 81.2017 35.1769 81.4461 34.9227C81.7004 34.6587 81.8519 34.424 81.9008 34.2187L82.0768 34.556L81.9008 35.3187C81.8128 35.7684 81.671 36.2231 81.4755 36.6827C81.2799 37.1422 81.0159 37.5627 80.6835 37.944C80.351 38.3156 79.9306 38.6187 79.4221 38.8533C78.9235 39.0782 78.3124 39.1907 77.5888 39.1907ZM81.9155 39L81.9008 16.1787H85.9341V39H81.9155ZM94.5146 39.3227C93.0968 39.3227 91.9773 38.8436 91.1559 37.8853C90.3346 36.9173 89.9239 35.4898 89.9239 33.6027V22.984H93.9866V32.356C93.9866 33.2458 94.0697 33.9498 94.2359 34.468C94.4022 34.9764 94.6515 35.3382 94.9839 35.5533C95.3262 35.7684 95.7466 35.876 96.2453 35.876C96.9102 35.876 97.5115 35.6707 98.0493 35.26C98.5968 34.8493 98.9928 34.3751 99.2373 33.8373V22.984H103.285V39H99.7506L99.3546 32.9573L99.5599 34.1747C99.4426 35.0547 99.2079 35.8858 98.8559 36.668C98.5137 37.4502 97.9955 38.0907 97.3013 38.5893C96.6071 39.0782 95.6782 39.3227 94.5146 39.3227ZM107.547 39V17.6747H111.669V37.5627L109.337 35.172H119.911V39H107.547ZM126.816 39.176C125.877 39.176 125.032 39 124.279 38.648C123.536 38.296 122.949 37.7876 122.519 37.1227C122.098 36.4578 121.888 35.6707 121.888 34.7613C121.888 33.8031 122.074 33.016 122.445 32.4C122.817 31.7742 123.335 31.2804 124 30.9187C124.665 30.5471 125.433 30.2733 126.303 30.0973C126.909 29.9702 127.535 29.8676 128.18 29.7893C128.835 29.7013 129.446 29.6329 130.013 29.584C130.581 29.5351 131.04 29.496 131.392 29.4667V28.924C131.392 27.8778 131.201 27.12 130.82 26.6507C130.439 26.1716 129.784 25.932 128.855 25.932C128.258 25.932 127.755 26.0102 127.344 26.1667C126.943 26.3231 126.64 26.6067 126.435 27.0173C126.229 27.428 126.127 28.0196 126.127 28.792H122.343C122.235 27.3938 122.445 26.2449 122.973 25.3453C123.511 24.4458 124.298 23.7809 125.335 23.3507C126.381 22.9107 127.608 22.6907 129.016 22.6907C129.847 22.6907 130.639 22.7836 131.392 22.9693C132.155 23.1453 132.829 23.4533 133.416 23.8933C134.013 24.3236 134.482 24.9151 134.824 25.668C135.176 26.4209 135.352 27.3742 135.352 28.528V39H131.363L131.392 35.3333C131.216 36.4089 130.766 37.3182 130.043 38.0613C129.319 38.8044 128.244 39.176 126.816 39.176ZM128.048 36.3453C128.547 36.3453 129.031 36.2573 129.5 36.0813C129.979 35.8956 130.39 35.6413 130.732 35.3187C131.084 34.996 131.304 34.6244 131.392 34.204V31.4907C131.001 31.5493 130.576 31.6178 130.116 31.696C129.657 31.7742 129.256 31.8524 128.913 31.9307C127.877 32.1458 127.149 32.444 126.728 32.8253C126.317 33.1969 126.112 33.72 126.112 34.3947C126.112 34.7956 126.19 35.1427 126.347 35.436C126.513 35.7293 126.743 35.9542 127.036 36.1107C127.339 36.2671 127.677 36.3453 128.048 36.3453ZM147.482 39.1907C146.573 39.1907 145.81 39.0342 145.194 38.7213C144.588 38.4084 144.119 38.0222 143.786 37.5627C143.463 37.0933 143.253 36.6289 143.155 36.1693L142.554 34.9667L143.346 34.336C143.434 34.6489 143.595 34.9324 143.83 35.1867C144.065 35.4311 144.383 35.6267 144.783 35.7733C145.184 35.9102 145.668 35.9787 146.235 35.9787C147.262 35.9787 148.083 35.5827 148.699 34.7907C149.325 33.9889 149.638 32.7129 149.638 30.9627C149.638 29.3396 149.34 28.1222 148.743 27.3107C148.157 26.4893 147.36 26.0787 146.353 26.0787C145.756 26.0787 145.243 26.1618 144.813 26.328C144.383 26.4942 144.045 26.6947 143.801 26.9293C143.556 27.1542 143.405 27.3742 143.346 27.5893L143.141 27.428L143.361 26.6507C143.478 25.8489 143.713 25.1498 144.065 24.5533C144.417 23.9569 144.901 23.4973 145.517 23.1747C146.133 22.852 146.886 22.6907 147.775 22.6907C149.047 22.6907 150.122 23.0329 151.002 23.7173C151.882 24.392 152.552 25.3404 153.011 26.5627C153.481 27.7751 153.715 29.188 153.715 30.8013C153.715 32.1702 153.554 33.3778 153.231 34.424C152.909 35.4604 152.459 36.3356 151.882 37.0493C151.315 37.7533 150.655 38.2862 149.902 38.648C149.149 39.0098 148.343 39.1907 147.482 39.1907ZM139.327 39V16.1787H143.361V23.7907V34.864L143.581 35.5533L143.258 36.3893L143.082 39H139.327Z" fill="#111827"/>
</svg>
