<svg width="47" height="47" viewBox="0 0 47 47" fill="none" xmlns="http://www.w3.org/2000/svg">
<path d="M16.1239 28.4685L18.1808 24.2436H17.7163L16.6326 22.0766H15.77V19.0536C12.2311 18.0156 8.40475 17.7242 5.7285 17.6332V36.6633C11.833 36.6997 18.0039 37.9016 22.3611 43.1462C22.3168 41.9625 22.2947 40.5239 22.2726 38.976H21.3437L16.1239 28.4685ZM4.29085 37.7923V21.4574C3.64943 21.4756 0.862593 21.4756 0 21.4756V42.3814C7.43157 41.6894 15.8142 41.7076 22.0514 46.0964C19.1982 39.3584 11.7667 37.7195 4.29085 37.7923ZM40.5419 36.8818V17.8517C37.8656 17.9428 34.0393 18.2341 30.5004 19.2721V22.0584H29.6378L28.554 24.2254H28.0896L30.1465 28.4503L24.9489 38.9214H24.0199C23.9978 40.5786 23.9757 42.1083 23.9314 43.3466C28.2665 38.1383 34.4374 36.9364 40.5419 36.8818ZM46.2704 21.7124C45.4078 21.7306 42.621 21.7306 41.9795 21.6942V38.0291C34.4816 37.9562 27.0722 39.5952 24.219 46.3331C30.4562 41.9443 38.8388 41.9444 46.2704 42.6181V21.7124Z" fill="#5F3EED"/>
<path d="M36.98 14.5193L36.9357 8.43697L40.9391 6.90728L23.09 0.333252L5.35156 7.10761L13.4909 10.1124L13.5351 15.1567H32.8218L32.844 10.0031L36.427 8.63729L36.4713 14.5375C36.2059 14.6286 36.0289 14.8289 36.0289 15.0838C36.0289 15.4116 36.3386 15.6666 36.7367 15.6666C37.1348 15.6666 37.4445 15.4116 37.4445 15.0838C37.4445 14.8107 37.2454 14.5922 36.98 14.5193ZM16.8528 16.2857H29.3936V21.1662H28.8849L27.8011 23.3333H26.4519L28.9291 28.4686L24.1738 38.0292H23.5987V30.1804C24.1517 30.0166 24.5719 29.5795 24.5719 29.0514C24.5719 28.3958 23.9305 27.8677 23.1343 27.8677C22.338 27.8677 21.6966 28.3958 21.6966 29.0514C21.6966 29.5613 22.0947 30.0166 22.6698 30.1804V38.0292H22.0947L17.3394 28.4686L19.8166 23.3333H18.4674L17.3836 21.1662H16.8749V16.2857H16.8528Z" fill="#F4B826"/>
</svg>
