<svg width="161" height="47" viewBox="0 0 161 47" fill="none" xmlns="http://www.w3.org/2000/svg">
<path d="M16.1239 28.4685L18.1808 24.2436H17.7163L16.6326 22.0766H15.77V19.0536C12.2311 18.0156 8.40475 17.7242 5.7285 17.6332V36.6633C11.833 36.6997 18.0039 37.9016 22.3611 43.1462C22.3168 41.9625 22.2947 40.5239 22.2726 38.976H21.3437L16.1239 28.4685ZM4.29085 37.7923V21.4574C3.64943 21.4756 0.862593 21.4756 0 21.4756V42.3814C7.43157 41.6894 15.8142 41.7076 22.0514 46.0964C19.1982 39.3584 11.7667 37.7195 4.29085 37.7923ZM40.5419 36.8818V17.8517C37.8656 17.9428 34.0393 18.2341 30.5004 19.2721V22.0584H29.6378L28.554 24.2254H28.0896L30.1465 28.4503L24.9489 38.9214H24.0199C23.9978 40.5786 23.9757 42.1083 23.9314 43.3466C28.2665 38.1383 34.4374 36.9364 40.5419 36.8818ZM46.2704 21.7124C45.4078 21.7306 42.621 21.7306 41.9795 21.6942V38.0291C34.4816 37.9562 27.0722 39.5952 24.219 46.3331C30.4562 41.9443 38.8388 41.9444 46.2704 42.6181V21.7124Z" fill="#5F3EED"/>
<path d="M36.98 14.5193L36.9357 8.43697L40.9391 6.90728L23.09 0.333252L5.35156 7.10761L13.4909 10.1124L13.5351 15.1567H32.8218L32.844 10.0031L36.427 8.63729L36.4713 14.5375C36.2059 14.6286 36.0289 14.8289 36.0289 15.0838C36.0289 15.4116 36.3386 15.6666 36.7367 15.6666C37.1348 15.6666 37.4445 15.4116 37.4445 15.0838C37.4445 14.8107 37.2454 14.5922 36.98 14.5193ZM16.8528 16.2857H29.3936V21.1662H28.8849L27.8011 23.3333H26.4519L28.9291 28.4686L24.1738 38.0292H23.5987V30.1804C24.1517 30.0166 24.5719 29.5795 24.5719 29.0514C24.5719 28.3958 23.9305 27.8677 23.1343 27.8677C22.338 27.8677 21.6966 28.3958 21.6966 29.0514C21.6966 29.5613 22.0947 30.0166 22.6698 30.1804V38.0292H22.0947L17.3394 28.4686L19.8166 23.3333H18.4674L17.3836 21.1662H16.8749V16.2857H16.8528Z" fill="#F4B826"/>
<path d="M58.5055 40.9832V19.1732H71.8255V23.0132H61.1755L62.6455 21.6632V28.8332L61.1755 27.8582H70.8955V31.6682H61.5355L62.6455 30.6332V38.4782L61.1755 37.1132H72.0355V40.9832H58.5055ZM80.3954 41.1782C79.0554 41.1782 77.9154 40.8232 76.9754 40.1132C76.0454 39.3932 75.3404 38.3982 74.8604 37.1282C74.3804 35.8582 74.1404 34.3882 74.1404 32.7182C74.1404 30.9082 74.4304 29.3782 75.0104 28.1282C75.5904 26.8782 76.3704 25.9282 77.3504 25.2782C78.3304 24.6282 79.4204 24.3032 80.6204 24.3032C81.5604 24.3032 82.3354 24.4632 82.9454 24.7832C83.5554 25.0932 84.0254 25.4882 84.3554 25.9682C84.6854 26.4482 84.9004 26.9232 85.0004 27.3932L85.7804 28.2632L84.8054 29.4332C84.7154 29.1132 84.5504 28.8282 84.3104 28.5782C84.0804 28.3182 83.7654 28.1132 83.3654 27.9632C82.9754 27.8132 82.4854 27.7382 81.8954 27.7382C80.8054 27.7382 79.9354 28.1432 79.2854 28.9532C78.6354 29.7632 78.3104 31.0432 78.3104 32.7932C78.3104 34.4132 78.6154 35.6532 79.2254 36.5132C79.8354 37.3632 80.6754 37.7882 81.7454 37.7882C82.3554 37.7882 82.8754 37.6932 83.3054 37.5032C83.7454 37.3032 84.0904 37.0732 84.3404 36.8132C84.6004 36.5432 84.7554 36.3032 84.8054 36.0932L84.9854 36.4382L84.8054 37.2182C84.7154 37.6782 84.5704 38.1432 84.3704 38.6132C84.1704 39.0832 83.9004 39.5132 83.5604 39.9032C83.2204 40.2832 82.7904 40.5932 82.2704 40.8332C81.7604 41.0632 81.1354 41.1782 80.3954 41.1782ZM84.8204 40.9832L84.8054 17.6432H88.9304V40.9832H84.8204ZM97.7059 41.3132C96.2559 41.3132 95.1109 40.8232 94.2709 39.8432C93.4309 38.8532 93.0109 37.3932 93.0109 35.4632V24.6032H97.1659V34.1882C97.1659 35.0982 97.2509 35.8182 97.4209 36.3482C97.5909 36.8682 97.8459 37.2382 98.1859 37.4582C98.5359 37.6782 98.9659 37.7882 99.4759 37.7882C100.156 37.7882 100.771 37.5782 101.321 37.1582C101.881 36.7382 102.286 36.2532 102.536 35.7032V24.6032H106.676V40.9832H103.061L102.656 34.8032L102.866 36.0482C102.746 36.9482 102.506 37.7982 102.146 38.5982C101.796 39.3982 101.266 40.0532 100.556 40.5632C99.8459 41.0632 98.8959 41.3132 97.7059 41.3132ZM111.035 40.9832V19.1732H115.25V39.5132L112.865 37.0682H123.68V40.9832H111.035ZM130.742 41.1632C129.782 41.1632 128.917 40.9832 128.147 40.6232C127.387 40.2632 126.787 39.7432 126.347 39.0632C125.917 38.3832 125.702 37.5782 125.702 36.6482C125.702 35.6682 125.892 34.8632 126.272 34.2332C126.652 33.5932 127.182 33.0882 127.862 32.7182C128.542 32.3382 129.327 32.0582 130.217 31.8782C130.837 31.7482 131.477 31.6432 132.137 31.5632C132.807 31.4732 133.432 31.4032 134.012 31.3532C134.592 31.3032 135.062 31.2632 135.422 31.2332V30.6782C135.422 29.6082 135.227 28.8332 134.837 28.3532C134.447 27.8632 133.777 27.6182 132.827 27.6182C132.217 27.6182 131.702 27.6982 131.282 27.8582C130.872 28.0182 130.562 28.3082 130.352 28.7282C130.142 29.1482 130.037 29.7532 130.037 30.5432H126.167C126.057 29.1132 126.272 27.9382 126.812 27.0182C127.362 26.0982 128.167 25.4182 129.227 24.9782C130.297 24.5282 131.552 24.3032 132.992 24.3032C133.842 24.3032 134.652 24.3982 135.422 24.5882C136.202 24.7682 136.892 25.0832 137.492 25.5332C138.102 25.9732 138.582 26.5782 138.932 27.3482C139.292 28.1182 139.472 29.0932 139.472 30.2732V40.9832H135.392L135.422 37.2332C135.242 38.3332 134.782 39.2632 134.042 40.0232C133.302 40.7832 132.202 41.1632 130.742 41.1632ZM132.002 38.2682C132.512 38.2682 133.007 38.1782 133.487 37.9982C133.977 37.8082 134.397 37.5482 134.747 37.2182C135.107 36.8882 135.332 36.5082 135.422 36.0782V33.3032C135.022 33.3632 134.587 33.4332 134.117 33.5132C133.647 33.5932 133.237 33.6732 132.887 33.7532C131.827 33.9732 131.082 34.2782 130.652 34.6682C130.232 35.0482 130.022 35.5832 130.022 36.2732C130.022 36.6832 130.102 37.0382 130.262 37.3382C130.432 37.6382 130.667 37.8682 130.967 38.0282C131.277 38.1882 131.622 38.2682 132.002 38.2682ZM151.877 41.1782C150.947 41.1782 150.167 41.0182 149.537 40.6982C148.917 40.3782 148.437 39.9832 148.097 39.5132C147.767 39.0332 147.552 38.5582 147.452 38.0882L146.837 36.8582L147.647 36.2132C147.737 36.5332 147.902 36.8232 148.142 37.0832C148.382 37.3332 148.707 37.5332 149.117 37.6832C149.527 37.8232 150.022 37.8932 150.602 37.8932C151.652 37.8932 152.492 37.4882 153.122 36.6782C153.762 35.8582 154.082 34.5532 154.082 32.7632C154.082 31.1032 153.777 29.8582 153.167 29.0282C152.567 28.1882 151.752 27.7682 150.722 27.7682C150.112 27.7682 149.587 27.8532 149.147 28.0232C148.707 28.1932 148.362 28.3982 148.112 28.6382C147.862 28.8682 147.707 29.0932 147.647 29.3132L147.437 29.1482L147.662 28.3532C147.782 27.5332 148.022 26.8182 148.382 26.2082C148.742 25.5982 149.237 25.1282 149.867 24.7982C150.497 24.4682 151.267 24.3032 152.177 24.3032C153.477 24.3032 154.577 24.6532 155.477 25.3532C156.377 26.0432 157.062 27.0132 157.532 28.2632C158.012 29.5032 158.252 30.9482 158.252 32.5982C158.252 33.9982 158.087 35.2332 157.757 36.3032C157.427 37.3632 156.967 38.2582 156.377 38.9882C155.797 39.7082 155.122 40.2532 154.352 40.6232C153.582 40.9932 152.757 41.1782 151.877 41.1782ZM143.537 40.9832V17.6432H147.662V25.4282V36.7532L147.887 37.4582L147.557 38.3132L147.377 40.9832H143.537Z" fill="#111827"/>
</svg>
