<svg width="600" height="676" viewBox="0 0 600 676" fill="none" xmlns="http://www.w3.org/2000/svg">
<path d="M195.881 667.482C283.997 670.44 259.544 669.618 263.961 669.768L281.538 670.357C283.237 670.413 284.539 668.868 284.215 667.197L282.615 659.11C281.894 655.454 279.419 652.38 275.993 650.893L274.662 650.305L263.782 645.565L254.144 631.801L195.371 635.541C195.162 638.525 196.125 624.746 193.338 664.652C193.235 666.147 194.394 667.432 195.878 667.481L195.881 667.482Z" fill="#5F71FA"/>
<path d="M281.527 670.837L195.868 667.963C194.121 667.905 192.739 666.397 192.863 664.619L194.896 635.508C194.913 635.267 195.104 635.077 195.345 635.062L254.118 631.324C254.281 631.292 254.446 631.391 254.542 631.528L264.103 645.179L276.192 650.455C279.76 652.005 282.341 655.206 283.091 659.019L284.692 667.104C285.048 668.951 283.726 670.839 281.527 670.839V670.837ZM195.825 635.993L193.823 664.685C193.738 665.904 194.68 666.96 195.899 667L281.557 669.874C282.878 669.951 284.02 668.695 283.746 667.288L282.146 659.204C281.456 655.7 279.085 652.757 275.806 651.334L263.596 646.007C263.515 645.971 263.444 645.914 263.394 645.84L253.909 632.297L195.825 635.991V635.993Z" fill="#5F71FA"/>
<path d="M195.878 667.483L213.919 668.091C212.226 658.685 204.744 650.623 194.439 648.905L193.338 664.653C193.235 666.148 194.394 667.433 195.878 667.481V667.483Z" fill="#0A1244"/>
<path d="M213.924 668.571C186.055 667.635 199.858 668.098 195.868 667.965C194.121 667.907 192.739 666.399 192.863 664.621L193.966 648.872C193.988 648.589 194.242 648.388 194.523 648.43C204.726 650.131 212.618 658.108 214.397 668.004C214.45 668.298 214.226 668.569 213.924 668.569V668.571ZM194.888 649.472L193.823 664.687C193.738 665.906 194.68 666.961 195.899 667.002L213.337 667.589C211.488 658.667 204.374 651.273 194.886 649.472H194.888Z" fill="#0A1244"/>
<path d="M263.963 669.768L281.539 670.357C283.239 670.413 284.541 668.868 284.217 667.197L282.617 659.11C281.896 655.454 279.421 652.38 275.995 650.893L274.663 650.305C273.31 650.91 272.004 651.699 270.778 652.668C265.427 656.895 263.057 663.475 263.962 669.766L263.963 669.768Z" fill="#0A1244"/>
<path d="M281.526 670.837L263.947 670.248C263.715 670.239 263.522 670.067 263.489 669.835C262.531 663.179 265.21 656.457 270.482 652.292C271.728 651.307 273.069 650.492 274.47 649.867C274.591 649.811 274.734 649.811 274.859 649.867L276.19 650.454C279.758 652.003 282.338 655.205 283.089 659.019L284.689 667.104C285.046 668.951 283.724 670.839 281.525 670.839L281.526 670.837ZM264.387 669.301L281.558 669.876C282.879 669.953 284.02 668.696 283.747 667.289L282.147 659.206C281.457 655.702 279.086 652.758 275.806 651.336L274.669 650.835C273.411 651.414 272.205 652.159 271.081 653.047C266.181 656.919 263.641 663.115 264.389 669.301H264.387Z" fill="#0A1244"/>
<path d="M212.629 633.921L259.684 639.71L254.145 631.802L212.629 633.921Z" fill="#0A1244"/>
<path d="M259.622 640.188L212.567 634.397C212.321 634.366 212.138 634.152 212.145 633.904C212.154 633.654 212.352 633.453 212.602 633.441L254.118 631.322C254.289 631.302 254.441 631.39 254.535 631.526L260.073 639.434C260.31 639.772 260.036 640.238 259.621 640.186L259.622 640.188ZM218.172 634.118L258.668 639.101L253.901 632.296L218.172 634.118Z" fill="#0A1244"/>
<path d="M1.65375 627.388C75.1336 676.111 54.7415 662.589 58.4261 665.032L73.084 674.751C74.5007 675.689 76.4199 675.057 77.0198 673.465L79.8971 665.741C81.2006 662.249 80.7043 658.334 78.5684 655.271L77.7423 654.073L70.9638 644.333L69.9728 627.559L17.9671 599.925C16.2253 602.356 24.2681 591.129 0.972131 623.648C0.0989042 624.867 0.413015 626.57 1.65218 627.389L1.65375 627.388Z" fill="#5F71FA"/>
<path d="M72.8226 675.151L1.39071 627.788C-0.0714731 626.824 -0.448406 624.813 0.585018 623.369L17.58 599.644C17.7197 599.447 17.9867 599.386 18.1956 599.499L70.2013 627.133C70.3489 627.212 70.4463 627.362 70.4557 627.529L71.4389 644.167L78.9666 654.998C81.1905 658.188 81.7087 662.266 80.3486 665.909L77.4714 673.631C76.7568 675.531 74.4779 676.249 72.8194 675.153L72.8226 675.151ZM18.1171 600.547L1.36715 623.928C0.650981 624.928 0.910122 626.318 1.92156 626.987L73.3518 674.349C74.5015 675.114 76.0783 674.605 76.5715 673.293L79.4487 665.572C80.6973 662.227 80.2214 658.478 78.175 655.546L70.572 644.606C70.5217 644.533 70.4919 644.449 70.4872 644.361L69.5118 627.857L18.1155 600.548L18.1171 600.547Z" fill="#5F71FA"/>
<path d="M1.65218 627.388L16.6949 637.366C20.1863 628.468 18.0409 617.68 10.1677 610.815L0.972131 623.648C0.0989041 624.867 0.413015 626.57 1.65218 627.389V627.388Z" fill="#0A1244"/>
<path d="M16.4335 637.766L1.39071 627.788C-0.0714731 626.824 -0.448406 624.814 0.585018 623.369L9.7806 610.536C9.93137 610.328 10.2471 610.248 10.4873 610.454C18.4705 617.416 20.7289 628.412 17.1465 637.543C17.0381 637.823 16.6879 637.94 16.4335 637.766ZM10.2518 611.53L1.36715 623.928C0.650981 624.928 0.910122 626.318 1.92156 626.987L16.4617 636.632C19.5589 628.079 17.3993 618.054 10.2502 611.53H10.2518Z" fill="#0A1244"/>
<path d="M58.4258 665.032L73.0837 674.751C74.5004 675.689 76.4196 675.057 77.0195 673.465L79.8968 665.741C81.2004 662.249 80.7041 658.334 78.5681 655.271L77.742 654.073C76.272 653.877 74.747 653.866 73.1953 654.048C66.4215 654.843 60.9544 659.201 58.4258 665.032Z" fill="#0A1244"/>
<path d="M72.8228 675.151L58.1633 665.433C57.9701 665.303 57.8963 665.054 57.989 664.841C60.6636 658.67 66.4715 654.353 73.1432 653.569C74.7216 653.382 76.2906 653.391 77.8094 653.596C77.9444 653.613 78.0654 653.687 78.1423 653.798L78.9684 654.997C81.1923 658.186 81.7106 662.265 80.3505 665.907L77.4732 673.63C76.7586 675.53 74.4798 676.248 72.8213 675.151H72.8228ZM59.0334 664.856L73.3537 674.349C74.5033 675.114 76.0802 674.605 76.5733 673.293L79.4506 665.573C80.6992 662.227 80.2233 658.478 78.1769 655.546L77.4717 654.522C76.099 654.357 74.6824 654.357 73.2532 654.522C67.0526 655.249 61.6405 659.195 59.0318 664.855L59.0334 664.856Z" fill="#0A1244"/>
<path d="M33.5469 608.867L70.5412 637.196L69.9727 627.558L33.5469 608.867Z" fill="#0A1244"/>
<path d="M70.2532 637.578L33.2588 609.247C33.061 609.094 33.0123 608.818 33.1442 608.607C33.2777 608.395 33.5478 608.328 33.7708 608.436L70.1966 627.129C70.3474 627.208 70.4464 627.36 70.4558 627.529L71.0243 637.168C71.0495 637.578 70.5752 637.828 70.2532 637.578ZM38.0851 611.733L70.0035 636.175L69.5119 627.859L38.0851 611.733Z" fill="#0A1244"/>
<path d="M323.279 118.005C315.803 173.883 282.874 208.607 238.24 218.375C232.299 219.687 226.158 220.537 219.827 220.951C206.091 221.824 191.527 220.585 176.469 217.113L178.749 158.754C234.686 181.479 263.765 149.813 284.022 96.1206L323.282 118.006L323.279 118.005Z" fill="#5F3EED"/>
<path d="M238.24 218.376C232.299 219.687 226.158 220.537 219.827 220.951L218.941 186.511L238.24 218.377V218.376Z" fill="#0A1244"/>
<path d="M489.735 18.4144V310.119C489.735 319.748 481.925 327.543 472.296 327.543H453.352C462.981 327.543 470.775 319.748 470.775 310.119V18.4144C470.775 8.78537 462.981 0.990723 453.352 0.990723H472.296C481.925 0.990723 489.735 8.78537 489.735 18.4144Z" fill="#F4B826"/>
<path d="M472.296 328.201H453.352V326.885C462.596 326.885 470.117 319.364 470.117 310.119V18.4144C470.117 9.17012 462.596 1.64875 453.352 1.64875V0.331055H472.296C482.275 0.331055 490.393 8.44296 490.393 18.4144V310.119C490.393 320.091 482.275 328.203 472.296 328.203V328.201ZM460.127 326.885H472.296C481.548 326.885 489.075 319.364 489.075 310.119V18.4144C489.075 9.17012 481.548 1.64875 472.296 1.64875H460.127C466.751 4.33439 471.435 10.838 471.435 18.4144V310.119C471.435 317.696 466.751 324.199 460.127 326.885Z" fill="#F4B826"/>
<path d="M453.159 0.987549H276.439C266.812 0.987549 259.008 8.79192 259.008 18.4191V310.113C259.008 319.74 266.812 327.545 276.439 327.545H453.159C462.787 327.545 470.591 319.74 470.591 310.113V18.4191C470.591 8.79192 462.787 0.987549 453.159 0.987549Z" fill="white"/>
<path d="M453.165 328.025H276.443C266.568 328.025 258.531 319.989 258.531 310.113V18.4192C258.531 8.54359 266.568 0.50708 276.443 0.50708H453.165C463.042 0.50708 471.079 8.54359 471.079 18.4192V310.113C471.079 319.989 463.042 328.025 453.165 328.025ZM276.443 1.46983C267.097 1.46983 259.494 9.07287 259.494 18.4192V310.113C259.494 319.459 267.097 327.062 276.443 327.062H453.165C462.513 327.062 470.116 319.459 470.116 310.113V18.4192C470.116 9.07287 462.513 1.46983 453.165 1.46983H276.443Z" fill="#0A1244"/>
<path d="M401.554 1.47461L393.623 12.2753C391.427 15.2641 387.941 17.0309 384.231 17.0309H344.597C340.889 17.0309 337.4 15.2656 335.205 12.2753L327.273 1.47461H401.553H401.554Z" fill="#BFC6FD"/>
<path d="M259.016 279.534V310.113C259.016 319.741 266.82 327.545 276.447 327.545H453.169C462.796 327.545 470.6 319.741 470.6 310.113V279.534H259.017H259.016Z" fill="white"/>
<path d="M453.165 328.025H276.443C266.568 328.025 258.531 319.989 258.531 310.113V279.534C258.531 279.269 258.748 279.054 259.012 279.054H470.597C470.862 279.054 471.077 279.27 471.077 279.534V310.113C471.077 319.989 463.041 328.025 453.164 328.025H453.165ZM259.494 280.016V310.115C259.494 319.461 267.097 327.064 276.443 327.064H453.165C462.513 327.064 470.116 319.461 470.116 310.115V280.016H259.494Z" fill="#0A1244"/>
<path d="M383.013 230.429C383.013 244.346 371.735 255.635 357.807 255.635C343.88 255.635 332.602 244.346 332.602 230.429C332.602 216.513 343.891 205.224 357.807 205.224C371.724 205.224 383.013 216.5 383.013 230.429Z" fill="#23C965"/>
<path d="M357.454 236.589L349.646 228.281C349.464 228.088 349.474 227.783 349.667 227.602C349.862 227.422 350.168 227.43 350.345 227.623L357.827 235.584L381.216 214.02C381.409 213.841 381.714 213.854 381.895 214.049C382.075 214.243 382.061 214.548 381.866 214.727L358.127 236.614C357.936 236.792 357.633 236.784 357.452 236.589H357.454Z" fill="#0A1244"/>
<path d="M374.937 296.996H346.316C342.703 296.996 339.773 299.925 339.773 303.539V303.54C339.773 307.154 342.703 310.083 346.316 310.083H374.937C378.55 310.083 381.479 307.154 381.479 303.54V303.539C381.479 299.925 378.55 296.996 374.937 296.996Z" fill="#BFC6FD"/>
<path d="M66.707 337.37C66.707 337.37 123.662 367.66 153.568 367.642C183.476 367.625 162.069 314.886 162.069 314.886C162.069 314.886 101.358 308.096 66.707 337.368V337.37Z" fill="#0A1244"/>
<path d="M266.864 631.019L195.054 634.857C195.054 634.857 182.852 598.183 167.381 548.637C162.858 534.169 158.063 518.602 153.196 502.527C130.884 428.697 107.358 344.224 104.191 306.653L198.231 302.814L266.866 631.021L266.864 631.019Z" fill="white"/>
<path d="M195.06 635.34C194.854 635.34 194.669 635.208 194.603 635.01C194.48 634.644 182.224 597.766 166.927 548.779C162.204 533.673 157.43 518.158 152.74 502.666C132.175 434.612 106.976 345.37 103.717 306.692C103.693 306.424 103.899 306.183 104.175 306.172L198.215 302.334C198.449 302.278 198.658 302.486 198.705 302.714L267.338 630.922C267.398 631.208 267.191 631.483 266.894 631.5L195.084 635.338C195.074 635.338 195.066 635.338 195.058 635.338L195.06 635.34ZM104.719 307.11C108.142 345.97 133.198 434.669 153.662 502.388C158.35 517.878 163.123 533.389 167.845 548.493C182.346 594.933 194.116 630.487 195.401 634.36L266.286 630.57L197.851 303.309L104.72 307.11H104.719Z" fill="#0A1244"/>
<path d="M178.369 489.026C178.369 489.026 173.927 521.624 167.384 548.636C162.861 534.168 158.066 518.601 153.199 502.526L178.369 489.026Z" fill="#0A1244"/>
<path d="M227.519 588.891C227.497 588.891 227.474 588.891 227.452 588.886C227.188 588.848 227.007 588.605 227.043 588.342C231.136 559.927 227.497 530.937 216.522 504.51C211.449 492.295 204.774 480.589 198.318 469.266C195.505 464.332 192.596 459.231 189.856 454.15C168.336 414.256 154.514 371.229 148.773 326.263C148.74 326.001 148.926 325.759 149.19 325.726C149.449 325.698 149.694 325.878 149.727 326.142C155.451 370.989 169.238 413.904 190.701 453.694C193.437 458.764 196.341 463.861 199.152 468.791C205.621 480.138 212.312 491.871 217.406 504.142C228.449 530.728 232.11 559.892 227.992 588.479C227.957 588.719 227.752 588.892 227.516 588.892L227.519 588.891Z" fill="#0A1244"/>
<path d="M17.6055 599.767C126.753 424.573 68.7128 500.79 86.4648 320.518C115.993 322.135 152.788 318.77 182.316 320.518C194.453 447.923 212.366 473.593 83.8608 634.862L17.6055 599.768V599.767Z" fill="white"/>
<path d="M83.6399 635.285L17.3846 600.191C17.1428 600.064 17.0517 599.751 17.2024 599.512C88.9358 484.37 88.3641 477.905 84.6529 435.836C82.7667 414.465 79.9161 382.167 85.991 320.469C86.0162 320.213 86.258 320.008 86.4952 320.037C115.916 321.647 152.903 318.296 182.349 320.037C182.586 320.052 182.778 320.235 182.8 320.472C183.942 332.457 185.116 343.373 186.252 353.927C191.681 404.379 195.267 437.711 182.968 477.268C170.656 516.865 142.053 562.609 84.2414 635.161C84.0922 635.348 83.8362 635.392 83.6415 635.285H83.6399ZM18.2893 599.581L83.7373 634.248C199.767 488.578 196.12 454.631 185.294 354.027C184.171 343.589 183.01 332.8 181.88 320.97C152.702 319.296 116.124 322.566 86.902 321.019C80.8946 382.327 83.731 414.467 85.6078 435.749C89.341 478.043 89.9143 484.595 18.2893 599.581Z" fill="#0A1244"/>
<path d="M228.204 250.834C223.701 297.288 206.153 343.396 206.153 343.396C199.56 339.784 192.145 337.076 184.222 335.091C132.529 322.116 66.707 337.37 66.707 337.37C97.2904 142.169 186.776 157.832 191.374 159.305C226.327 170.58 232.1 210.832 228.204 250.834Z" fill="#5F3EED"/>
<path d="M313.18 236.629C313.18 236.629 315.02 224.512 318.52 224.98C322.019 225.448 319.324 236.539 319.324 236.539" fill="white"/>
<path d="M313.184 237.109C312.891 237.109 312.665 236.847 312.709 236.556C312.905 235.268 314.757 223.986 318.589 224.504C319.175 224.582 319.655 224.889 320.016 225.416C321.848 228.096 319.881 236.305 319.797 236.652C319.735 236.91 319.471 237.068 319.217 237.005C318.958 236.943 318.801 236.682 318.864 236.426C319.484 233.872 320.954 225.446 318.328 225.446C316.176 225.446 314.331 232.288 313.662 236.699C313.624 236.936 313.42 237.108 313.186 237.108L313.184 237.109Z" fill="#0A1244"/>
<path d="M314.205 236.754C314.205 236.754 320.484 231.295 322.657 229.461C326.907 225.874 336.99 217.312 338.928 219.409C341.333 222.012 327.74 233.81 327.74 233.81C327.74 233.81 332.649 232.247 331.724 236.927C333.736 234.969 336.513 238.802 333.819 241.171C333.819 241.171 338.152 241.873 333.97 246.321C330.579 249.927 327.096 251.692 324.028 252.692C321.549 253.5 318.387 253.73 315.932 259.27L314.203 236.756L314.205 236.754Z" fill="white"/>
<path d="M315.455 259.306L313.728 236.79C313.717 236.638 313.778 236.49 313.893 236.39C317.469 233.252 322.38 229.069 322.526 228.942C331.25 221.578 337.435 217.086 339.284 219.081C339.584 219.406 339.72 219.83 339.692 220.34C339.516 223.522 332.328 230.335 329.286 233.081C331.144 233.012 332.383 233.993 332.32 236C334.512 235.294 336.54 238.527 334.695 240.938C335.237 241.169 335.898 241.599 336.16 242.372C336.546 243.503 335.926 244.941 334.319 246.649C331.406 249.747 328.087 251.874 324.178 253.146C321.006 254.181 318.587 254.462 316.373 259.461C316.167 259.923 315.49 259.793 315.454 259.304L315.455 259.306ZM314.705 236.957L316.283 257.509C318.567 253.51 321.073 253.151 323.883 252.234C327.635 251.01 330.822 248.968 333.622 245.991C335.295 244.211 335.431 243.209 335.252 242.68C334.974 241.863 333.757 241.646 333.745 241.643C333.346 241.579 333.2 241.078 333.504 240.808C335.142 239.366 334.395 237.265 333.228 236.911C332.826 236.787 332.43 236.908 332.062 237.269C331.725 237.596 331.166 237.294 331.255 236.833C331.48 235.694 331.351 234.899 330.875 234.472C330.098 233.78 328.458 234.092 327.888 234.268C327.676 234.337 327.436 234.244 327.324 234.045C327.214 233.847 327.257 233.597 327.428 233.448C330.519 230.764 338.576 223.17 338.734 220.289C338.748 220.044 338.696 219.863 338.579 219.736C336.843 217.838 324.554 228.603 322.971 229.828C321.031 231.463 315.755 236.047 314.706 236.958L314.705 236.957Z" fill="#0A1244"/>
<path d="M150.992 221.704C186.331 288.992 254.649 312.189 321.851 268.44L312.856 224.402C258.931 244.038 215.963 242.628 196.735 185.392" fill="#5F3EED"/>
<path d="M223.867 287.014C223.821 287.014 223.776 287.007 223.729 286.993C218.634 285.47 213.591 283.518 208.738 281.19C185.09 269.871 164.973 249.378 150.563 221.928C150.439 221.693 150.532 221.402 150.766 221.28C151.001 221.159 151.29 221.247 151.414 221.482C165.727 248.749 185.692 269.095 209.152 280.326C213.96 282.632 218.957 284.567 224.004 286.076C224.258 286.151 224.402 286.42 224.327 286.674C224.266 286.883 224.074 287.018 223.867 287.018V287.014Z" fill="#0A1244"/>
<path d="M327.734 233.809C327.734 233.809 326.533 234.674 324.664 236.54L327.734 233.809Z" fill="white"/>
<path d="M324.328 236.879C324.141 236.691 324.141 236.386 324.328 236.199C326.201 234.329 327.404 233.457 327.456 233.421C327.67 233.264 327.971 233.314 328.127 233.529C328.282 233.746 328.234 234.045 328.018 234.2C328.007 234.209 326.82 235.07 325.006 236.881C324.816 237.068 324.515 237.068 324.326 236.881L324.328 236.879Z" fill="#0A1244"/>
<path d="M332.024 236.782C332.024 236.782 330.822 237.648 328.953 239.513L332.024 236.782Z" fill="white"/>
<path d="M328.618 239.852C328.429 239.664 328.429 239.361 328.618 239.174C330.49 237.302 331.695 236.429 331.746 236.393C331.96 236.237 332.262 236.283 332.417 236.503C332.573 236.718 332.524 237.018 332.309 237.173C332.296 237.183 331.109 238.045 329.296 239.854C329.108 240.043 328.806 240.043 328.618 239.854V239.852Z" fill="#0A1244"/>
<path d="M334.086 240.978C334.086 240.978 332.885 241.843 331.016 243.709L334.086 240.978Z" fill="white"/>
<path d="M330.68 244.048C330.492 243.86 330.492 243.555 330.68 243.37C332.554 241.498 333.757 240.624 333.809 240.588C334.023 240.431 334.323 240.48 334.48 240.697C334.635 240.913 334.586 241.212 334.371 241.367C334.36 241.377 333.173 242.237 331.359 244.048C331.17 244.237 330.869 244.237 330.68 244.048Z" fill="#0A1244"/>
<path d="M252.184 290.75C237.009 290.657 222.433 287.222 208.945 280.756C209.079 280.387 209.212 280.018 209.357 279.654C213.899 268.214 226.851 262.632 238.291 267.172C247.964 271.012 253.467 280.88 252.184 290.748V290.75Z" fill="#0A1244"/>
<path d="M305.324 277.789L293.498 243.076C293.413 242.824 293.547 242.551 293.798 242.465C294.051 242.383 294.323 242.515 294.409 242.765L306.235 277.478C306.32 277.73 306.187 278.003 305.935 278.089C305.667 278.177 305.406 278.028 305.324 277.789Z" fill="#0A1244"/>
<path d="M303.577 245.612C301.297 244.707 300.179 242.116 301.083 239.836C301.985 237.561 304.57 236.416 306.863 237.332C309.164 238.243 310.258 240.839 309.351 243.12C308.441 245.411 305.839 246.514 303.576 245.614L303.577 245.612ZM301.977 240.19C301.269 241.976 302.145 244.008 303.932 244.72C305.713 245.422 307.75 244.553 308.46 242.765C309.173 240.966 308.308 238.939 306.51 238.226C304.729 237.517 302.693 238.389 301.977 240.192V240.19Z" fill="#0A1244"/>
<path d="M183.366 158.672L182.327 143.199C181.276 141.451 180.519 139.454 180.119 137.246C178.206 126.816 184.819 115.75 194.835 112.513C204.897 109.253 214.583 115.076 216.496 125.505C216.637 126.213 216.708 126.923 216.778 127.619C218.124 130.454 222.082 134.281 220.677 136.158C219.945 137.138 216.566 137.611 214.558 137.552C212.456 144.202 211.464 150.816 201.188 150.414L201.718 176.422" fill="white"/>
<path d="M201.72 176.904C201.46 176.904 201.244 176.695 201.24 176.433L200.709 150.424C200.703 150.12 200.985 149.894 201.21 149.934C210.296 150.272 211.532 145.51 214.103 137.406C214.169 137.202 214.362 137.068 214.575 137.07C216.702 137.149 219.755 136.591 220.295 135.869C221.037 134.878 219.554 132.743 218.247 130.86C218.06 130.591 216.35 128.157 216.305 127.667C216.234 126.965 216.163 126.272 216.028 125.599C215.123 120.666 212.43 116.645 208.444 114.266C204.481 111.9 199.705 111.437 194.986 112.968C185.184 116.136 178.729 126.987 180.595 137.156C180.978 139.267 181.701 141.216 182.742 142.949C182.781 143.015 182.805 143.088 182.809 143.165L183.849 158.638C183.866 158.904 183.667 159.132 183.401 159.15C183.138 159.15 182.908 158.967 182.889 158.703L181.858 143.346C180.788 141.538 180.045 139.515 179.648 137.331C177.699 126.704 184.446 115.365 194.689 112.054C199.674 110.44 204.733 110.934 208.935 113.441C213.163 115.963 216.017 120.216 216.972 125.418C217.112 126.112 217.184 126.81 217.252 127.486C218.667 130.381 222.727 134.227 221.065 136.445C220.16 137.657 216.705 138.03 214.915 138.036C212.466 145.875 211.073 151.097 201.684 150.908L202.206 176.411C202.21 176.676 202 176.896 201.735 176.902H201.724L201.72 176.904Z" fill="#0A1244"/>
<path d="M214.592 120.036C214.592 120.036 208.627 125.76 195.613 121.243C181.287 116.271 203.791 126.605 189.344 134.692C189.344 134.692 183.746 139.647 182.546 144.971C182.546 144.971 160.739 115.916 181.609 110.939C181.609 110.939 171.557 105.004 192.81 100.887C214.063 96.771 227.762 110.944 214.595 120.036H214.592Z" fill="#0A1244"/>
<path d="M192.264 133.641C191.912 130.622 189.151 128.441 186.131 128.808C183.095 129.159 180.914 131.921 181.283 134.94C181.633 137.976 184.394 140.157 187.432 139.79" fill="white"/>
<path d="M180.81 134.995C180.408 131.717 182.772 128.714 186.079 128.331C189.396 127.929 192.366 130.332 192.745 133.585C192.776 133.848 192.586 134.086 192.322 134.117C192.068 134.148 191.82 133.958 191.79 133.695C191.473 130.973 188.99 128.951 186.192 129.284C183.397 129.608 181.431 132.141 181.764 134.88C182.081 137.643 184.586 139.645 187.377 139.312C187.642 139.27 187.879 139.469 187.912 139.732C187.944 139.996 187.757 140.234 187.493 140.267C184.204 140.665 181.192 138.312 180.81 134.995Z" fill="#0A1244"/>
<path d="M211.2 126.203C211.448 126.969 212.274 127.393 213.032 127.148C213.799 126.9 214.223 126.073 213.975 125.308C213.727 124.541 212.902 124.127 212.136 124.375C211.379 124.62 210.951 125.438 211.2 126.205V126.203Z" fill="#0A1244"/>
<path d="M207.23 123.348C207.013 123.194 206.963 122.894 207.115 122.677C207.885 121.594 209.03 120.874 210.341 120.651C211.651 120.43 212.97 120.731 214.054 121.499C214.271 121.653 214.321 121.953 214.169 122.17C214.015 122.387 213.712 122.435 213.498 122.285C212.623 121.664 211.558 121.422 210.501 121.6C209.443 121.78 208.518 122.36 207.899 123.235C207.745 123.451 207.447 123.503 207.228 123.349L207.23 123.348Z" fill="#0A1244"/>
<path d="M201.257 150.377C201.257 150.377 198.075 150.305 194.488 147.839C196.343 150.751 198.619 152.904 201.235 154.447L201.256 150.585V150.377H201.257Z" fill="#0A1244"/>
<path d="M200.99 154.86C198.227 153.231 195.903 150.957 194.082 148.097C193.803 147.659 194.327 147.145 194.759 147.442C198.171 149.787 201.236 149.895 201.268 149.895C201.53 149.903 201.739 150.118 201.737 150.379L201.715 154.448C201.712 154.817 201.316 155.048 200.99 154.86ZM196.185 149.399C197.506 151.062 199.036 152.463 200.759 153.586L200.773 150.822C199.975 150.734 198.251 150.429 196.185 149.399Z" fill="#0A1244"/>
<path d="M206.754 139.83C206.754 139.83 208.431 143.378 212.868 142.854L206.754 139.83Z" fill="white"/>
<path d="M212.001 143.388C207.957 143.388 206.341 140.072 206.323 140.036C206.21 139.796 206.312 139.512 206.551 139.397C206.788 139.279 207.076 139.385 207.192 139.623C207.256 139.755 208.808 142.841 212.816 142.376C213.096 142.336 213.319 142.535 213.35 142.797C213.382 143.061 213.193 143.3 212.929 143.331C212.606 143.371 212.298 143.388 212.003 143.388H212.001Z" fill="#0A1244"/>
<path d="M86.6637 604.686L34.168 573.008L34.8496 571.882L87.3453 603.558L86.6637 604.686Z" fill="#0A1244"/>
<path d="M246.767 605.861L187.629 608.174L187.68 609.491L246.818 607.178L246.767 605.861Z" fill="#0A1244"/>
<path d="M67.1775 588.87L66.2383 587.947C118.381 534.944 134.444 473.088 138.738 430.532C143.39 384.416 135.617 350.426 135.537 350.088L136.82 349.787C136.899 350.128 144.722 384.331 140.048 430.662C135.732 473.43 119.587 535.594 67.1759 588.87H67.1775Z" fill="#0A1244"/>
<path d="M115.991 58.6847C112.065 54.4317 112.33 47.7804 116.58 43.8572C120.835 39.9324 127.487 40.1962 131.412 44.4493C131.587 44.6362 131.574 44.9283 131.387 45.0995C131.199 45.2722 130.908 45.2612 130.737 45.0743C127.079 41.1118 121.015 41.016 117.207 44.5325C113.329 48.1118 113.089 54.1788 116.669 58.0597C116.844 58.2466 116.831 58.5387 116.644 58.7099C116.454 58.8858 116.159 58.8669 115.994 58.6847H115.991Z" fill="#0A1244"/>
<path d="M540.072 281.394C539.818 281.383 539.62 281.169 539.629 280.915C539.64 280.66 539.876 280.455 540.108 280.472C545.431 280.679 549.847 276.55 550.059 271.289C550.27 266.004 546.161 261.553 540.873 261.344C540.619 261.333 540.421 261.12 540.43 260.865C540.441 260.611 540.688 260.441 540.909 260.422C546.705 260.653 551.21 265.527 550.98 271.325C550.747 277.166 545.797 281.648 540.072 281.392V281.394Z" fill="#0A1244"/>
<path d="M477.766 60.29V81.5129C477.766 83.1369 479.082 84.4545 480.707 84.4545C482.331 84.4545 483.649 83.1384 483.649 81.5129V60.29C483.649 58.6661 482.333 57.3484 480.707 57.3484C479.083 57.3484 477.766 58.6645 477.766 60.29Z" fill="#0A1244"/>
<path d="M483.645 45.7564V40.4888C483.645 38.8648 482.329 37.5471 480.703 37.5471C479.079 37.5471 477.762 38.8632 477.762 40.4888V45.7564C477.762 47.3803 479.078 48.698 480.703 48.698C482.327 48.698 483.645 47.3819 483.645 45.7564Z" fill="#0A1244"/>
<path d="M442.326 600.021C435.647 597.686 429.457 590.511 431.1 582.991C432.631 575.982 439.619 572.082 446.942 568.913C453.57 566.042 460.779 562.409 462.401 555.598C464.498 546.8 456.865 539.98 450.211 534.618L449.887 534.358C439.188 525.732 428.645 516.62 418.548 507.272C412.502 501.675 406.72 496.079 402.431 489.19C386.713 463.947 405.297 441.873 427.813 441.508C441.874 441.238 455.203 449.009 464.688 459.835C473.774 470.205 479.729 483.448 481.461 497.128C482.851 508.13 481.728 520.008 486.738 529.813C490.239 536.657 496.415 541.867 499.897 548.845C505.535 560.146 503.039 573.422 502.062 585.322C502.042 585.575 501.841 585.774 501.566 585.745C501.312 585.724 501.123 585.501 501.144 585.248C502.094 573.593 504.607 560.352 499.07 549.256C495.664 542.427 489.451 537.141 485.919 530.232C480.789 520.196 481.94 508.244 480.546 497.244C478.839 483.745 472.958 470.677 463.994 460.443C454.688 449.82 441.775 442.246 427.829 442.43C406.607 442.776 387.582 463.589 403.213 488.705C407.441 495.496 413.175 501.043 419.173 506.597C429.255 515.93 439.784 525.029 450.465 533.642L450.789 533.902C457.719 539.484 465.534 546.432 463.3 555.812C461.578 563.038 454.143 566.799 447.308 569.758C440.211 572.83 433.445 576.584 432 583.188C430.464 590.214 436.322 596.943 442.63 599.151C449.465 601.54 457.113 600.217 463.695 598.607C471.98 596.581 480.156 593.847 487.998 590.478C488.232 590.376 488.504 590.486 488.603 590.72C488.703 590.953 488.595 591.224 488.361 591.325C480.474 594.714 472.249 597.467 463.914 599.503C456.854 601.229 449.223 602.436 442.325 600.021H442.326Z" fill="#0A1244"/>
<path d="M491.139 638.11C490.886 638.083 490.702 637.855 490.73 637.603C495.418 594.689 472.399 532.33 458.259 498.978C458.16 498.744 458.27 498.472 458.504 498.373C458.738 498.276 459.01 498.384 459.109 498.618C473.283 532.052 496.359 594.58 491.647 637.703C491.618 637.975 491.36 638.144 491.14 638.111L491.139 638.11Z" fill="#0A1244"/>
<path d="M512.26 622.07C516.229 622.918 519.582 626.04 523.639 625.888C527.694 625.735 531.906 622.874 532.245 618.83C532.584 614.789 529.233 611.49 526.15 608.855C523.067 606.22 519.69 602.97 519.954 598.923C520.116 596.434 521.713 594.216 523.698 592.707C525.683 591.196 528.045 590.279 530.362 589.353C537.572 586.476 544.684 583.352 551.681 579.988C555.766 578.025 559.86 575.947 563.282 572.976C566.705 570.004 569.437 566.01 570.045 561.519C571.104 553.694 565.131 546.025 557.624 543.578C550.116 541.131 541.701 543.154 534.981 547.299C528.4 551.356 523.073 557.413 519.886 564.456C517.298 570.179 515.963 576.723 511.585 581.227C508.555 584.343 504.36 586.134 501.36 589.278C496.894 593.961 493.377 602.565 494.219 608.407C494.511 610.432 493.193 617.994 512.26 622.071V622.07Z" fill="#BFC6FD"/>
<path d="M491.058 638.738C490.808 638.691 490.645 638.449 490.692 638.198C495.311 614.189 518.096 584.364 531.267 568.721C531.433 568.527 531.724 568.502 531.916 568.666C532.11 568.83 532.135 569.12 531.97 569.315C518.858 584.887 496.174 614.569 491.596 638.372C491.551 638.609 491.323 638.784 491.056 638.738H491.058Z" fill="#0A1244"/>
<path d="M302.802 416.562C298.871 412.304 299.127 405.668 303.391 401.734C307.645 397.809 314.299 398.073 318.224 402.326C318.398 402.513 318.386 402.805 318.199 402.976C318.01 403.149 317.72 403.138 317.548 402.951C313.958 399.063 307.91 398.819 304.018 402.409C300.134 405.997 299.891 412.046 303.481 415.937C303.655 416.124 303.643 416.416 303.456 416.587C303.266 416.763 302.971 416.744 302.806 416.562H302.802Z" fill="#0A1244"/>
<path d="M577.771 363.679L560.664 385.909L582.894 403.016L600.001 380.786L577.771 363.679Z" fill="#76C4FF"/>
<path d="M575.675 354.144L547.629 354.286L547.771 382.333L575.817 382.191L575.675 354.144Z" fill="#FFA186"/>
<path d="M395.655 68.287C395.655 86.5086 380.879 101.284 362.657 101.284C344.436 101.284 329.66 86.5086 329.66 68.287C329.66 50.0655 344.434 35.2834 362.657 35.2834C380.881 35.2834 395.655 50.0592 395.655 68.287Z" fill="white"/>
<path d="M362.661 101.765C344.201 101.765 329.184 86.7476 329.184 68.2889C329.184 49.8302 344.203 34.8047 362.661 34.8047C381.12 34.8047 396.139 49.8254 396.139 68.2889C396.139 86.7523 381.12 101.765 362.661 101.765ZM362.661 35.7659C344.732 35.7659 330.145 50.3547 330.145 68.2889C330.145 86.223 344.73 100.804 362.661 100.804C380.592 100.804 395.178 86.2183 395.178 68.2889C395.178 50.3594 380.592 35.7659 362.661 35.7659Z" fill="#0A1244"/>
<path d="M370.998 56.1185C370.998 60.7249 367.263 64.4613 362.655 64.4613C358.047 64.4613 354.312 60.7265 354.312 56.1185C354.312 51.5105 358.047 47.7742 362.655 47.7742C367.263 47.7742 370.998 51.5089 370.998 56.1185Z" fill="white"/>
<path d="M362.659 64.9418C357.795 64.9418 353.836 60.984 353.836 56.1184C353.836 51.2528 357.794 47.2935 362.659 47.2935C367.525 47.2935 371.483 51.2528 371.483 56.1184C371.483 60.984 367.525 64.9418 362.659 64.9418ZM362.659 48.2562C358.325 48.2562 354.799 51.7837 354.799 56.12C354.799 60.4563 358.325 63.9806 362.659 63.9806C366.994 63.9806 370.52 60.4547 370.52 56.12C370.52 51.7852 366.994 48.2562 362.659 48.2562Z" fill="#0A1244"/>
<path d="M345.172 86.2228C345.172 76.567 352.998 68.741 362.651 68.741C372.303 68.741 380.129 76.567 380.129 86.2228" fill="white"/>
<path d="M380.133 86.7051C379.868 86.7051 379.653 86.4883 379.653 86.2245C379.653 76.8499 372.028 69.2232 362.655 69.2232C353.282 69.2232 345.656 76.8499 345.656 86.2245C345.656 86.4899 345.44 86.7051 345.176 86.7051C344.912 86.7051 344.695 86.4883 344.695 86.2245C344.695 76.3206 352.752 68.2605 362.655 68.2605C372.557 68.2605 380.614 76.319 380.614 86.2245C380.614 86.4899 380.397 86.7051 380.133 86.7051Z" fill="#0A1244"/>
<path d="M425.004 118.315H304.604C302.648 118.315 301.062 119.901 301.062 121.857V143.262C301.062 145.218 302.648 146.804 304.604 146.804H425.004C426.96 146.804 428.546 145.218 428.546 143.262V121.857C428.546 119.901 426.96 118.315 425.004 118.315Z" fill="white"/>
<path d="M425 147.286H304.6C302.383 147.286 300.578 145.482 300.578 143.264V121.859C300.578 119.641 302.383 117.837 304.6 117.837H425C427.218 117.837 429.023 119.641 429.023 121.859V143.264C429.023 145.482 427.218 147.286 425 147.286ZM304.6 118.798C302.914 118.798 301.539 120.171 301.539 121.859V143.264C301.539 144.951 302.912 146.325 304.6 146.325H425C426.687 146.325 428.061 144.952 428.061 143.264V121.859C428.061 120.172 426.689 118.798 425 118.798H304.6Z" fill="#0A1244"/>
<path d="M425.004 160.778H304.604C302.648 160.778 301.062 162.364 301.062 164.32V185.725C301.062 187.681 302.648 189.267 304.604 189.267H425.004C426.96 189.267 428.546 187.681 428.546 185.725V164.32C428.546 162.364 426.96 160.778 425.004 160.778Z" fill="white"/>
<path d="M425 189.747H304.6C302.383 189.747 300.578 187.943 300.578 185.725V164.32C300.578 162.102 302.383 160.298 304.6 160.298H425C427.218 160.298 429.023 162.102 429.023 164.32V185.725C429.023 187.943 427.218 189.747 425 189.747ZM304.6 161.261C302.914 161.261 301.539 162.633 301.539 164.322V185.727C301.539 187.413 302.912 188.788 304.6 188.788H425C426.687 188.788 428.061 187.415 428.061 185.727V164.322C428.061 162.635 426.689 161.261 425 161.261H304.6Z" fill="#0A1244"/>
<path d="M320.733 175.022C320.733 177.568 318.669 179.622 316.133 179.622C313.597 179.622 311.523 177.566 311.523 175.022C311.523 172.478 313.587 170.422 316.133 170.422C318.679 170.422 320.733 172.478 320.733 175.022Z" fill="white"/>
<path d="M316.137 180.104C313.33 180.104 311.047 177.824 311.047 175.022C311.047 172.22 313.33 169.941 316.137 169.941C318.944 169.941 321.219 172.222 321.219 175.022C321.219 177.822 318.939 180.104 316.137 180.104ZM316.137 170.904C313.861 170.904 312.01 172.753 312.01 175.024C312.01 177.295 313.861 179.143 316.137 179.143C318.413 179.143 320.257 177.295 320.257 175.024C320.257 172.753 318.408 170.904 316.137 170.904Z" fill="#0A1244"/>
<path d="M336.885 175.022C336.885 177.568 334.822 179.622 332.285 179.622C329.749 179.622 327.676 177.566 327.676 175.022C327.676 172.478 329.739 170.422 332.285 170.422C334.831 170.422 336.885 172.478 336.885 175.022Z" fill="white"/>
<path d="M332.283 180.104C329.477 180.104 327.191 177.824 327.191 175.022C327.191 172.22 329.475 169.941 332.283 169.941C335.091 169.941 337.364 172.222 337.364 175.022C337.364 177.822 335.083 180.104 332.283 180.104ZM332.283 170.904C330.006 170.904 328.154 172.753 328.154 175.024C328.154 177.295 330.006 179.143 332.283 179.143C334.56 179.143 336.403 177.295 336.403 175.024C336.403 172.753 334.554 170.904 332.283 170.904Z" fill="#0A1244"/>
<path d="M353.01 175.022C353.01 177.568 350.947 179.622 348.41 179.622C345.874 179.622 343.801 177.566 343.801 175.022C343.801 172.478 345.864 170.422 348.41 170.422C350.956 170.422 353.01 172.478 353.01 175.022Z" fill="white"/>
<path d="M348.414 180.104C345.608 180.104 343.324 177.824 343.324 175.022C343.324 172.22 345.608 169.941 348.414 169.941C351.221 169.941 353.497 172.222 353.497 175.022C353.497 177.822 351.216 180.104 348.414 180.104ZM348.414 170.904C346.139 170.904 344.287 172.753 344.287 175.024C344.287 177.295 346.139 179.143 348.414 179.143C350.69 179.143 352.534 177.295 352.534 175.024C352.534 172.753 350.685 170.904 348.414 170.904Z" fill="#0A1244"/>
<path d="M369.151 175.022C369.151 177.568 367.087 179.622 364.551 179.622C362.015 179.622 359.941 177.566 359.941 175.022C359.941 172.478 362.005 170.422 364.551 170.422C367.097 170.422 369.151 172.478 369.151 175.022Z" fill="white"/>
<path d="M364.557 180.104C361.75 180.104 359.465 177.824 359.465 175.022C359.465 172.22 361.748 169.941 364.557 169.941C367.365 169.941 369.637 172.222 369.637 175.022C369.637 177.822 367.357 180.104 364.557 180.104ZM364.557 170.904C362.279 170.904 360.428 172.753 360.428 175.024C360.428 177.295 362.279 179.143 364.557 179.143C366.834 179.143 368.676 177.295 368.676 175.024C368.676 172.753 366.828 170.904 364.557 170.904Z" fill="#0A1244"/>
<path d="M365.304 127.941H310.877C310.194 127.941 309.641 128.495 309.641 129.177V135.937C309.641 136.619 310.194 137.173 310.877 137.173H365.304C365.987 137.173 366.54 136.619 366.54 135.937V129.177C366.54 128.495 365.987 127.941 365.304 127.941Z" fill="#F4B826"/>
</svg>
