<svg width="313" height="294" viewBox="0 0 313 294" fill="none" xmlns="http://www.w3.org/2000/svg">
<path d="M253.241 50.2865L168.777 50.6533L160.962 73.0536L170.679 79.2176L155.693 84.4731L148.108 106.183L162.555 99.5895L175.69 107.487L253.241 50.2865Z" stroke="#F4B826" stroke-width="2" stroke-miterlimit="10" stroke-linecap="round" stroke-linejoin="round"/>
<path d="M162.895 69.166L253.241 50.2865" stroke="#F4B826" stroke-width="2" stroke-miterlimit="10" stroke-linecap="round" stroke-linejoin="round"/>
<path d="M170.678 79.2177L253.24 50.2865" stroke="#F4B826" stroke-width="2" stroke-miterlimit="10" stroke-linecap="round" stroke-linejoin="round"/>
<path d="M162.556 99.5894L253.241 50.2864" stroke="#F4B826" stroke-width="2" stroke-miterlimit="10" stroke-linecap="round" stroke-linejoin="round"/>
<path d="M150.276 77.1011C143.433 77.3253 135.536 82.1246 132.443 84.4963C127.381 88.5931 120.776 95.5954 118.859 105.492C115.724 122.2 127.553 143.1 162.532 139.528C197.584 135.889 213.042 166.077 207.407 188.197C203.394 203.947 181.328 211.691 178.503 201.801C176.041 193.341 185.735 190.154 194.396 194.424C202.504 198.387 205.581 205.741 194.159 222.584C180.095 244.798 94.5254 283.903 4.12183 288.08" stroke="#F4B826" stroke-width="2" stroke-linecap="round" stroke-linejoin="round" stroke-dasharray="7.43 7.43"/>
</svg>
