<svg width="20" height="21" viewBox="0 0 20 21" fill="none" xmlns="http://www.w3.org/2000/svg">
<path fill-rule="evenodd" clip-rule="evenodd" d="M5.87395 20.222H14.2218C17.2881 20.222 19.6405 19.1144 18.9724 14.6567L18.1943 8.61555C17.7824 6.3913 16.3637 5.54004 15.1188 5.54004H4.94031C3.67716 5.54004 2.34077 6.45537 1.8648 8.61555L1.08677 14.6567C0.519261 18.611 2.80759 20.222 5.87395 20.222Z" stroke="white" stroke-width="1.5" stroke-linecap="round" stroke-linejoin="round"/>
<path d="M5.73671 5.32041C5.73671 2.93433 7.67101 1.00004 10.0571 1.00004V1.00004C11.2061 0.99517 12.3097 1.4482 13.1239 2.25895C13.9381 3.06971 14.3958 4.17139 14.3958 5.32041V5.32041" stroke="white" stroke-width="1.5" stroke-linecap="round" stroke-linejoin="round"/>
<path d="M7.09135 9.82388H7.13712" stroke="white" stroke-width="1.5" stroke-linecap="round" stroke-linejoin="round"/>
<path d="M12.922 9.82388H12.9678" stroke="white" stroke-width="1.5" stroke-linecap="round" stroke-linejoin="round"/>
</svg>
