<svg width="21" height="22" viewBox="0 0 21 22" fill="none" xmlns="http://www.w3.org/2000/svg">
<path fill-rule="evenodd" clip-rule="evenodd" d="M6.48638 20.6404H14.8342C17.9006 20.6404 20.253 19.5329 19.5848 15.0752L18.8067 9.03401C18.3948 6.80975 16.9761 5.9585 15.7312 5.9585H5.55274C4.28958 5.9585 2.9532 6.87383 2.47723 9.03401L1.69919 15.0752C1.13169 19.0294 3.42002 20.6404 6.48638 20.6404Z" stroke="#111827" stroke-width="1.5" stroke-linecap="round" stroke-linejoin="round"/>
<path d="M6.34914 5.73886C6.34914 3.35279 8.28343 1.4185 10.6695 1.4185V1.4185C11.8185 1.41363 12.9221 1.86666 13.7363 2.67741C14.5505 3.48817 15.0082 4.58985 15.0082 5.73886V5.73886" stroke="#111827" stroke-width="1.5" stroke-linecap="round" stroke-linejoin="round"/>
<path d="M7.70378 10.2423H7.74954" stroke="#111827" stroke-width="1.5" stroke-linecap="round" stroke-linejoin="round"/>
<path d="M13.5345 10.2423H13.5802" stroke="#111827" stroke-width="1.5" stroke-linecap="round" stroke-linejoin="round"/>
</svg>
