<svg width="52" height="51" viewBox="0 0 52 51" fill="none" xmlns="http://www.w3.org/2000/svg">
<path d="M2.97859 48.4427L19.6383 31.783M40.6174 24.3746L35.6305 39.338C35.5505 39.5773 35.4141 39.7939 35.2328 39.9693C35.0514 40.1448 34.8304 40.2739 34.5886 40.3459L4.01786 49.4349C3.74244 49.5167 3.44987 49.5214 3.17197 49.4484C2.89407 49.3755 2.6415 49.2277 2.44175 49.0212C2.24199 48.8147 2.10271 48.5574 2.03904 48.2772C1.97538 47.9971 1.98978 47.7048 2.08068 47.4323L12.0074 17.6573C12.0785 17.4436 12.1949 17.2476 12.3484 17.0827C12.502 16.9178 12.6892 16.788 12.8975 16.7018L26.9996 10.8956C27.2863 10.7771 27.6016 10.7463 27.9058 10.8068C28.21 10.8674 28.4895 11.0167 28.709 11.2359L40.2378 22.7673C40.4441 22.9735 40.5889 23.2332 40.6559 23.5171C40.723 23.8009 40.7096 24.0979 40.6174 24.3746Z" stroke="#111827" stroke-width="3" stroke-linecap="round" stroke-linejoin="round"/>
<path d="M42.5259 2.84068L48.7144 9.02917C49.1794 9.47409 49.5509 10.0074 49.807 10.5979C50.0631 11.1883 50.1987 11.824 50.2058 12.4675C50.213 13.1111 50.0915 13.7496 49.8484 14.3456C49.6054 14.9415 49.2458 15.4829 48.7907 15.938C48.3357 16.3931 47.7942 16.7527 47.1983 16.9957C46.6023 17.2387 45.9638 17.3602 45.3202 17.3531C44.6767 17.346 44.041 17.2104 43.4506 16.9543C42.8601 16.6982 42.3268 16.3267 41.8819 15.8616L35.6908 9.67315C34.8176 8.76044 34.3364 7.54211 34.3504 6.27904C34.3644 5.01597 34.8723 3.80858 35.7655 2.9154C36.6587 2.02222 37.8661 1.51426 39.1291 1.5003C40.3922 1.48633 41.6132 1.96747 42.5259 2.84068Z" stroke="#111827" stroke-width="3" stroke-linecap="round" stroke-linejoin="round"/>
<path d="M25.1906 26.2281C24.8284 25.853 24.3951 25.5539 23.916 25.3481C23.4369 25.1423 22.9217 25.034 22.4003 25.0294C21.8789 25.0249 21.3618 25.1243 20.8793 25.3217C20.3967 25.5191 19.9582 25.8107 19.5896 26.1794C19.2209 26.5481 18.9293 26.9865 18.7319 27.4691C18.5344 27.9517 18.4351 28.4687 18.4396 28.9901C18.4441 29.5115 18.5525 30.0268 18.7582 30.5058C18.964 30.9849 19.2632 31.4182 19.6382 31.7804C20.3788 32.4957 21.3707 32.8915 22.4003 32.8826C23.4299 32.8736 24.4147 32.4607 25.1428 31.7326C25.8708 31.0046 26.2838 30.0197 26.2927 28.9901C26.3017 27.9606 25.9059 26.9687 25.1906 26.2281Z" stroke="#111827" stroke-width="3" stroke-linecap="round" stroke-linejoin="round"/>
</svg>
