<svg width="58" height="94" viewBox="0 0 58 94" fill="none" xmlns="http://www.w3.org/2000/svg">
<g opacity="0.3">
<path d="M6.84595 79.9767L1.64593 86.3767C1.34593 86.6767 0.845927 86.3767 1.04593 85.9767L4.44592 78.5767" stroke="#5F3EED" stroke-width="1.856" stroke-miterlimit="10" stroke-linecap="round" stroke-linejoin="round"/>
<path d="M40.4458 29.0767L12.2458 74.4767" stroke="#5F3EED" stroke-width="1.856" stroke-miterlimit="10" stroke-linecap="round" stroke-linejoin="round"/>
<path d="M6.8457 71.1767L34.4457 26.5767" stroke="#5F3EED" stroke-width="1.856" stroke-miterlimit="10" stroke-linecap="round" stroke-linejoin="round"/>
<path d="M7.14604 79.8766L3.34605 77.4766C3.04605 77.2766 2.94604 76.9766 3.14604 76.6766L6.34605 71.5766C6.54605 71.2766 6.84604 71.1766 7.14604 71.3766L11.946 74.3766C12.246 74.5766 12.346 74.8766 12.146 75.1766L8.94603 80.2766C8.74603 80.5766 8.44604 80.6766 8.14604 80.4766L7.14604 79.8766Z" stroke="#5F3EED" stroke-width="1.856" stroke-miterlimit="10" stroke-linecap="round" stroke-linejoin="round"/>
<path d="M40.3457 29.6766L19.3457 74.9766" stroke="#5F3EED" stroke-width="1.856" stroke-miterlimit="10" stroke-linecap="round" stroke-linejoin="round"/>
<path d="M31.8457 62.9766L46.0457 32.3766" stroke="#5F3EED" stroke-width="1.856" stroke-miterlimit="10" stroke-linecap="round" stroke-linejoin="round"/>
<path d="M48.3457 8.97664L52.3457 1.57664C52.6457 1.07664 53.3457 0.876641 53.8457 1.07664L56.4457 2.47664C56.9457 2.77664 57.1457 3.47664 56.9457 3.97664L52.9457 11.3766" stroke="#5F3EED" stroke-width="1.856" stroke-miterlimit="10" stroke-linecap="round" stroke-linejoin="round"/>
<path d="M40.4456 29.0766L35.1456 26.1766C34.5456 25.8766 34.3456 25.1766 34.6456 24.5766L43.4456 8.17665C43.7456 7.57665 44.4456 7.37665 45.0456 7.67665L55.8457 13.4767C56.4457 13.7767 56.6457 14.4766 56.3457 15.0766L47.5456 31.4767C47.2456 32.0767 46.5456 32.2767 45.9456 31.9767L40.4456 29.0766Z" stroke="#5F3EED" stroke-width="1.856" stroke-miterlimit="10" stroke-linecap="round" stroke-linejoin="round"/>
<path d="M45.4458 22.9767C47.2131 22.9767 48.6458 21.544 48.6458 19.7767C48.6458 18.0093 47.2131 16.5767 45.4458 16.5767C43.6785 16.5767 42.2458 18.0093 42.2458 19.7767C42.2458 21.544 43.6785 22.9767 45.4458 22.9767Z" stroke="#5F3EED" stroke-width="1.856" stroke-miterlimit="10" stroke-linecap="round" stroke-linejoin="round"/>
<path d="M26.4455 78.3766L49.8455 48.5766C49.8455 48.5766 51.3455 46.7766 49.5455 44.9766C48.0455 43.4766 46.3455 44.2766 45.6455 45.0766C45.2455 45.5766 31.2455 63.8766 22.1455 75.8766" stroke="#5F3EED" stroke-width="1.856" stroke-miterlimit="10" stroke-linecap="round" stroke-linejoin="round"/>
<path d="M19.3454 79.4766C16.8454 82.7766 15.0454 85.0766 14.5454 85.7766C14.4454 85.8766 14.3454 86.1766 14.3454 86.2766L12.4454 92.1766C12.3454 92.3766 12.6454 92.5766 12.8454 92.4766L18.2454 88.8766C18.3454 88.7766 18.4454 88.7766 18.4454 88.6766L23.8454 81.7766" stroke="#5F3EED" stroke-width="1.856" stroke-miterlimit="10" stroke-linecap="round" stroke-linejoin="round"/>
<path d="M12.7455 92.4766L17.8455 88.9766C18.1455 88.7766 18.4455 88.5766 18.3455 88.2766C18.3455 87.8766 17.9455 87.6766 17.5455 87.6766C17.4455 87.6766 17.4455 87.6766 17.3455 87.6766C17.3455 87.5766 17.3455 87.5766 17.3455 87.4766C17.3455 87.0766 16.9455 86.8766 16.5455 86.8766C16.4455 86.8766 16.4455 86.8766 16.3455 86.9766C16.3455 86.8766 16.3455 86.8766 16.3455 86.7766C16.3455 86.3766 15.9455 86.1766 15.5455 86.1766H15.4455V86.0766C15.4455 85.6766 15.0455 85.3766 14.6455 85.4766C14.3455 85.4766 14.1455 85.8766 14.0455 86.0766L12.1455 92.1766C12.3455 92.4766 12.5455 92.6766 12.7455 92.4766Z" stroke="#5F3EED" stroke-width="1.856" stroke-miterlimit="10" stroke-linecap="round" stroke-linejoin="round"/>
<path d="M14.1454 91.5766L12.7455 92.4766C12.5455 92.5766 12.3455 92.4766 12.3455 92.1766L12.8455 90.5766C12.8455 90.6766 13.5454 90.4766 14.1454 91.5766Z" stroke="#5F3EED" stroke-width="1.856" stroke-miterlimit="10" stroke-linecap="round" stroke-linejoin="round"/>
<path d="M49.8455 48.4766C49.8455 48.4766 51.3455 46.6766 49.5455 44.8766C48.0455 43.3766 46.3455 44.1766 45.6455 44.9766" stroke="#5F3EED" stroke-width="1.856" stroke-miterlimit="10" stroke-linecap="round" stroke-linejoin="round"/>
<path d="M25.9459 82.8767L18.0459 78.6767C17.8459 78.5767 17.7459 78.2767 17.8459 77.9767L19.2459 75.4767C19.3459 75.2767 19.6458 75.1767 19.9458 75.2767L27.8459 79.4767C28.0459 79.5767 28.1459 79.8767 28.0459 80.1767L26.6459 82.6767C26.5459 82.8767 26.2459 82.9767 25.9459 82.8767Z" stroke="#5F3EED" stroke-width="1.856" stroke-miterlimit="10" stroke-linecap="round" stroke-linejoin="round"/>
</g>
</svg>
