<svg width="65" height="50" viewBox="0 0 65 50" fill="none" xmlns="http://www.w3.org/2000/svg">
<path d="M5.84269 45.9559C2.19101 41.9118 -3.27835e-06 37.5 -2.63554e-06 30.1471C-1.51061e-06 17.2794 9.12922 5.88235 21.9101 1.91544e-06L25.1966 4.77941C13.1461 11.3971 10.5899 19.8529 9.85955 25.3676C11.6854 24.2647 14.2416 23.8971 16.7978 24.2647C23.3708 25 28.4831 30.1471 28.4831 37.1324C28.4831 40.4412 27.0225 43.75 24.8315 46.3235C22.2753 48.8971 19.3539 50 15.7022 50C11.6854 50 8.0337 48.1618 5.84269 45.9559ZM42.3596 45.9559C38.7079 41.9118 36.5169 37.5 36.5169 30.1471C36.5169 17.2794 45.6461 5.88236 58.427 5.10785e-06L61.7135 4.77942C49.6629 11.3971 47.1067 19.8529 46.3764 25.3677C48.2023 24.2647 50.7584 23.8971 53.3146 24.2647C59.8876 25 65 30.1471 65 37.1324C65 40.4412 63.5393 43.75 61.3483 46.3235C59.1573 48.8971 55.8708 50 52.2191 50C48.2022 50 44.5506 48.1618 42.3596 45.9559Z" fill="#F4B826"/>
</svg>
