<svg width="47" height="37" viewBox="0 0 47 37" fill="none" xmlns="http://www.w3.org/2000/svg">
<path opacity="0.14" d="M42.7792 3.41176C45.4172 6.32352 47 9.5 47 14.7941C47 24.0588 40.405 32.2647 31.172 36.5L28.7977 33.0588C37.5032 28.2941 39.3498 22.2059 39.8774 18.2353C38.5584 19.0294 36.7118 19.2941 34.8652 19.0294C30.1168 18.5 26.4235 14.7941 26.4235 9.7647C26.4235 7.38235 27.4787 5 29.0616 3.14706C30.9082 1.29412 33.0186 0.499999 35.6566 0.499999C38.5584 0.499999 41.1964 1.82352 42.7792 3.41176ZM16.3991 3.41176C19.0371 6.32352 20.6199 9.5 20.6199 14.7941C20.6199 24.0588 14.0249 32.2647 4.79188 36.5L2.41768 33.0588C11.1231 28.2941 12.9697 22.2059 13.4973 18.2353C12.1783 19.0294 10.3317 19.2941 8.48509 19.0294C3.73668 18.5 0.0434704 14.7941 0.0434708 9.7647C0.043471 7.38235 1.09868 5 2.68148 3.14706C4.26429 1.29411 6.63849 0.499996 9.2765 0.499997C12.1783 0.499997 14.8163 1.82352 16.3991 3.41176Z" fill="#5F3EED"/>
</svg>
