<svg width="49" height="39" viewBox="0 0 49 39" fill="none" xmlns="http://www.w3.org/2000/svg">
<path d="M44.1068 3.89344L44.0988 3.88462L44.0904 3.8762C42.422 2.20208 39.6595 0.817382 36.6136 0.817382C33.8553 0.817382 31.6134 1.65584 29.6644 3.61149L29.6509 3.62509L29.6384 3.63969C27.9957 5.5628 26.8806 8.05638 26.8806 10.5821C26.8806 15.8831 30.7812 19.7843 35.7591 20.3428C37.3077 20.5637 38.8852 20.433 40.1939 19.9205C39.8788 21.6838 39.2612 23.7599 37.936 25.9037C36.3698 28.4375 33.7986 31.0929 29.5147 33.4376L29.0284 33.7038L29.3432 34.1601L31.7174 37.6013L31.9559 37.9469L32.3375 37.7718C41.6927 33.4805 48.457 25.1261 48.457 15.6115C48.457 10.1854 46.8226 6.89111 44.1068 3.89344ZM17.7267 3.89344L17.7187 3.88462L17.7103 3.8762C16.0419 2.20207 13.2795 0.81738 10.2335 0.81738C7.5008 0.817379 4.96516 1.64156 3.25833 3.63969C1.61559 5.5628 0.500502 8.05638 0.500502 10.5821C0.500502 15.8831 4.40115 19.7843 9.37899 20.3428C10.9277 20.5636 12.5051 20.433 13.8138 19.9205C13.4987 21.6838 12.8811 23.7599 11.5559 25.9037C9.98969 28.4375 7.41854 31.0929 3.13465 33.4376L2.6483 33.7038L2.96315 34.1601L5.33736 37.6013L5.57578 37.9469L5.95738 37.7718C15.3126 33.4805 22.077 25.1261 22.077 15.6115C22.077 10.1854 20.4425 6.89111 17.7267 3.89344Z" stroke="#00A264"/>
</svg>
