<svg width="69" height="108" viewBox="0 0 69 108" fill="none" xmlns="http://www.w3.org/2000/svg">
<g opacity="0.7">
<path d="M23.771 98.5735C36.8994 103.67 49.1462 103.67 51.1249 98.5731C53.1036 93.4762 44.065 85.2126 30.9366 80.1159C17.8082 75.0192 5.56145 75.0193 3.58272 80.1162C1.60399 85.2131 10.6426 93.4767 23.771 98.5735Z" stroke="#EF5486" stroke-width="1.856" stroke-miterlimit="10" stroke-linecap="round" stroke-linejoin="round"/>
<path d="M50.9632 97.6567L48.7632 96.7567" stroke="#EF5486" stroke-width="1.856" stroke-linecap="round" stroke-linejoin="round"/>
<path d="M44.9632 95.3567L31.7632 90.1567" stroke="#EF5486" stroke-width="1.856" stroke-linecap="round" stroke-linejoin="round" stroke-dasharray="4.05 4.05"/>
<path d="M29.8636 89.4567L27.6636 88.5567L28.4636 86.3567" stroke="#EF5486" stroke-width="1.856" stroke-linecap="round" stroke-linejoin="round"/>
<path d="M30.1636 82.0567L52.6636 23.7567" stroke="#EF5486" stroke-width="1.856" stroke-linecap="round" stroke-linejoin="round" stroke-dasharray="4.63 4.63"/>
<path d="M53.4636 21.5567L54.2636 19.3567" stroke="#EF5486" stroke-width="1.856" stroke-linecap="round" stroke-linejoin="round"/>
<path d="M3.96436 79.3567L54.2644 19.3567L50.9644 97.6567" stroke="#EF5486" stroke-width="1.856" stroke-miterlimit="10" stroke-linecap="round" stroke-linejoin="round"/>
<path d="M60.787 8.55758C61.0107 8.64648 61.1666 8.79313 61.2547 8.99751C61.3428 9.20189 61.3407 9.42021 61.2484 9.65249L59.0787 15.1109C58.9897 15.3346 58.8414 15.4948 58.6336 15.5915C58.4292 15.6796 58.2152 15.6792 57.9915 15.5903C57.7678 15.5014 57.612 15.3547 57.5238 15.1504C57.4391 14.9374 57.4413 14.7191 57.5302 14.4954L57.7815 13.8631L58.0192 14.0921C57.9748 14.2039 57.8598 14.3176 57.6744 14.4332C57.4924 14.5402 57.2674 14.63 56.9994 14.7028C56.7314 14.7756 56.4332 14.8115 56.1049 14.8105C55.7886 14.8043 55.4669 14.7362 55.14 14.6063C54.5464 14.3703 54.0686 14.006 53.7066 13.5134C53.3479 13.0122 53.1326 12.4385 53.0608 11.7923C53.0009 11.1409 53.1095 10.4668 53.3865 9.76999C53.6669 9.06457 54.0507 8.49988 54.538 8.07594C55.0374 7.64682 55.5835 7.37575 56.1763 7.26273C56.7725 7.14111 57.3589 7.19486 57.9352 7.42397C58.3052 7.57102 58.6227 7.76201 58.888 7.99695C59.1532 8.23189 59.3635 8.47984 59.5188 8.74081C59.6826 9.00519 59.7889 9.25165 59.8375 9.48018C59.8982 9.70353 59.9046 9.87542 59.8567 9.99586L59.3255 9.97896L59.6999 9.03696C59.7888 8.81329 59.9355 8.6574 60.1398 8.56928C60.3476 8.47257 60.5634 8.46867 60.787 8.55758ZM55.8978 13.2637C56.2764 13.4142 56.6452 13.4512 57.0043 13.3748C57.3634 13.2984 57.6854 13.1275 57.9702 12.8622C58.2636 12.6002 58.4906 12.2671 58.6513 11.8628C58.8155 11.4499 58.8808 11.0475 58.8473 10.6556C58.8224 10.2671 58.7056 9.92184 58.497 9.61974C58.2883 9.31763 57.9947 9.09134 57.6162 8.94088C57.2463 8.79384 56.8817 8.75852 56.5226 8.83494C56.1635 8.91135 55.8372 9.08052 55.5439 9.34245C55.2591 9.6078 55.0346 9.94694 54.8704 10.3599C54.7097 10.7642 54.6418 11.1606 54.6667 11.549C54.7002 11.9409 54.8213 12.2879 55.03 12.59C55.2386 12.8921 55.5279 13.1167 55.8978 13.2637Z" fill="#EF5486"/>
<path d="M62.3668 96.212C62.9702 96.4484 63.4481 96.8146 63.8006 97.3107C64.1651 97.8015 64.3806 98.3681 64.447 99.0106C64.5221 99.6564 64.4211 100.333 64.1442 101.04C63.8673 101.746 63.4802 102.316 62.9831 102.747C62.4979 103.173 61.9574 103.449 61.3618 103.573C60.7781 103.693 60.1933 103.638 59.6071 103.408C59.2624 103.273 58.9611 103.09 58.7033 102.86C58.4455 102.63 58.234 102.383 58.0689 102.119C57.9123 101.859 57.8031 101.617 57.7414 101.394C57.6916 101.166 57.6904 100.992 57.7377 100.871L58.2043 100.86L57.8345 101.804C57.7467 102.028 57.5992 102.189 57.3919 102.287C57.1879 102.376 56.9739 102.376 56.7498 102.288C56.5257 102.201 56.3691 102.055 56.28 101.851C56.1908 101.647 56.1919 101.429 56.283 101.196L59.4642 93.0764C59.552 92.8523 59.6979 92.6956 59.9018 92.6065C60.1092 92.5088 60.3249 92.5038 60.549 92.5916C60.7731 92.6794 60.928 92.8296 61.0137 93.0422C61.1029 93.2461 61.1035 93.4601 61.0157 93.6842L59.7291 96.9682L59.5549 96.7658C59.5988 96.6537 59.7114 96.5437 59.8929 96.4359C60.0777 96.3194 60.304 96.2241 60.5716 96.15C60.8427 96.0673 61.132 96.0265 61.4398 96.0278C61.7561 96.0324 62.0651 96.0938 62.3668 96.212ZM61.6157 97.5583C61.2364 97.4097 60.8674 97.3745 60.5087 97.4527C60.1499 97.5308 59.8245 97.7016 59.5324 97.965C59.2523 98.2231 59.0312 98.5591 58.8691 98.9728C58.7104 99.3779 58.6428 99.7789 58.6662 100.176C58.7017 100.568 58.8244 100.914 59.0346 101.215C59.2447 101.516 59.5394 101.741 59.9187 101.89C60.298 102.038 60.6626 102.072 61.0128 101.99C61.3715 101.912 61.6926 101.739 61.9761 101.473C62.2716 101.201 62.4987 100.862 62.6574 100.457C62.8195 100.043 62.8811 99.6449 62.8423 99.2618C62.8155 98.8735 62.697 98.5288 62.4868 98.2277C62.2853 97.93 61.9949 97.7068 61.6157 97.5583Z" fill="#EF5486"/>
</g>
</svg>
