<svg xmlns="http://www.w3.org/2000/svg" width="370" height="396" viewBox="0 0 370 396"><rect width="100%" height="100%" fill="#DDDDDD"/><path fill="#999999" d="m79.45 190.725-3.18-.56q.37-2.55 1.42-4.47 1.05-1.93 2.63-3.21 1.58-1.29 3.63-1.94 2.05-.65 4.4-.65 2.45 0 4.42.7 1.97.7 3.37 1.93 1.39 1.24 2.14 2.91.75 1.66.75 3.6 0 1.69-.38 2.98-.38 1.28-1.09 2.24-.71.95-1.76 1.61-1.06.67-2.38 1.11 3.18 1 4.75 3.06 1.57 2.06 1.57 5.17 0 2.65-.98 4.68t-2.65 3.42q-1.66 1.38-3.85 2.09-2.2.71-4.65.71-2.67 0-4.65-.61-1.99-.61-3.46-1.81-1.47-1.2-2.5-2.94t-1.76-4.02l2.67-1.1q1.05-.45 1.97-.24.92.21 1.34 1 .44.85.97 1.69.52.83 1.26 1.48.73.65 1.72 1.05 1 .41 2.37.41 1.54 0 2.69-.51 1.16-.5 1.93-1.31t1.15-1.8q.38-.99.38-1.99 0-1.28-.27-2.32-.27-1.04-1.13-1.78-.86-.73-2.46-1.15-1.61-.41-4.3-.41v-4.32q2.23-.02 3.7-.41 1.47-.39 2.34-1.09.87-.7 1.21-1.68.34-.98.34-2.16 0-2.5-1.39-3.79-1.4-1.3-3.73-1.3-1.07 0-1.98.3-.91.31-1.63.86-.72.55-1.21 1.29-.49.73-.74 1.61-.41 1.13-1.09 1.5-.67.37-1.9.17Zm24.87-10.44h24.48v2.62q0 1.18-.25 1.9-.24.73-.49 1.22l-13.42 27.63q-.42.86-1.18 1.46t-2.03.6h-4.39l13.7-27.07q.46-.84.92-1.53.45-.7 1.01-1.34h-16.95q-.57 0-.98-.42-.42-.41-.42-.98v-4.09Zm53.34 17.72q0 4.63-.99 8.04-1 3.42-2.75 5.65-1.75 2.23-4.14 3.32-2.39 1.09-5.16 1.09-2.76 0-5.13-1.09-2.36-1.09-4.1-3.32-1.74-2.23-2.72-5.65-.98-3.41-.98-8.04 0-4.66.98-8.06.98-3.41 2.72-5.64 1.74-2.23 4.1-3.32 2.37-1.09 5.13-1.09 2.77 0 5.16 1.09t4.14 3.32q1.75 2.23 2.75 5.64.99 3.4.99 8.06Zm-6.25 0q0-3.85-.56-6.37-.57-2.53-1.51-4.02-.94-1.5-2.17-2.1-1.22-.6-2.55-.6-1.29 0-2.51.6-1.21.6-2.14 2.1-.93 1.49-1.48 4.02-.55 2.52-.55 6.37 0 3.84.55 6.37.55 2.52 1.48 4.01.93 1.5 2.14 2.1 1.22.6 2.51.6 1.33 0 2.55-.6 1.23-.6 2.17-2.1.94-1.49 1.51-4.01.56-2.53.56-6.37Zm45.15 9.6-3.21 3.16-8.3-8.3-8.38 8.35-3.21-3.16 8.38-8.4-7.99-7.99 3.19-3.19 7.98 7.99 7.94-7.94 3.24 3.19-7.97 7.96 8.33 8.33Zm20.39-16.88-3.19-.56q.37-2.55 1.42-4.47 1.06-1.93 2.64-3.21 1.58-1.29 3.62-1.94 2.05-.65 4.4-.65 2.45 0 4.42.7 1.98.7 3.37 1.93 1.4 1.24 2.15 2.91.74 1.66.74 3.6 0 1.69-.38 2.98-.38 1.28-1.09 2.24-.71.95-1.76 1.61-1.05.67-2.38 1.11 3.19 1 4.76 3.06 1.56 2.06 1.56 5.17 0 2.65-.98 4.68t-2.64 3.42q-1.67 1.38-3.86 2.09t-4.64.71q-2.67 0-4.66-.61-1.98-.61-3.45-1.81-1.47-1.2-2.5-2.94t-1.77-4.02l2.67-1.1q1.06-.45 1.98-.24.92.21 1.33 1 .44.85.97 1.69.53.83 1.26 1.48.74.65 1.73 1.05.99.41 2.36.41 1.55 0 2.7-.51 1.15-.5 1.92-1.31t1.15-1.8q.38-.99.38-1.99 0-1.28-.27-2.32-.27-1.04-1.12-1.78-.86-.73-2.47-1.15-1.6-.41-4.3-.41v-4.32q2.23-.02 3.7-.41 1.47-.39 2.34-1.09.87-.7 1.22-1.68.34-.98.34-2.16 0-2.5-1.4-3.79-1.39-1.3-3.72-1.3-1.08 0-1.99.3-.9.31-1.63.86-.72.55-1.21 1.29-.49.73-.73 1.61-.42 1.13-1.09 1.5-.68.37-1.9.17Zm30.67.2q0 2.96 1.53 4.52 1.53 1.55 4.35 1.55 1.47 0 2.62-.46 1.16-.47 1.94-1.28t1.19-1.91q.4-1.1.4-2.38 0-1.44-.44-2.58-.44-1.14-1.25-1.92-.81-.79-1.92-1.2-1.12-.42-2.44-.42-1.37 0-2.47.45-1.11.46-1.89 1.26-.79.81-1.2 1.93-.42 1.11-.42 2.44Zm-2.96 24.79 11-13.74q.41-.52.78-1.01.37-.49.71-.98-1.22.78-2.69 1.19-1.47.4-3.09.4-1.84 0-3.6-.63-1.77-.64-3.14-1.93-1.37-1.28-2.21-3.18-.85-1.9-.85-4.45 0-2.38.88-4.46t2.48-3.65q1.59-1.57 3.82-2.47 2.23-.91 4.92-.91 2.72 0 4.89.86 2.17.86 3.7 2.4 1.53 1.54 2.35 3.7.82 2.15.82 4.73 0 1.64-.28 3.11t-.79 2.83q-.52 1.36-1.25 2.66-.74 1.3-1.65 2.57l-8.1 11.56q-.42.59-1.25 1-.84.4-1.89.4h-5.56Zm46.6-35.43-10.51 12.87-1.23 1.51q1.03-.51 2.22-.79 1.19-.28 2.56-.28 2.01 0 3.91.66 1.89.66 3.34 1.99 1.45 1.34 2.33 3.32.88 1.99.88 4.63 0 2.48-.91 4.65-.9 2.17-2.54 3.78-1.65 1.62-3.96 2.55-2.32.93-5.11.93-2.84 0-5.1-.9-2.25-.91-3.84-2.54-1.59-1.63-2.44-3.92-.84-2.29-.84-5.08 0-2.5 1.01-5.14 1.02-2.63 3.15-5.47l8.45-11.35q.44-.58 1.29-1 .84-.42 1.95-.42h5.39Zm-9.14 30.87q1.44 0 2.66-.49 1.21-.49 2.08-1.37.87-.88 1.36-2.07.49-1.19.49-2.58 0-1.52-.47-2.74-.46-1.21-1.32-2.05-.86-.85-2.06-1.29-1.2-.44-2.64-.44-1.45 0-2.63.49-1.17.49-2 1.36-.84.87-1.3 2.06-.47 1.18-.47 2.56 0 1.47.41 2.68.4 1.21 1.2 2.07.79.86 1.97 1.34 1.17.47 2.72.47Z"/></svg>