<svg width="614" height="261" viewBox="0 0 614 261" fill="none" xmlns="http://www.w3.org/2000/svg">
<path d="M423.355 198.901V155.5L522.723 13.3647H582.79V152.359H608.576V198.901H582.79V239.782H529.016V198.901H423.355ZM532.79 72.4834L479.965 152.359H532.79V72.4834Z" fill="white" stroke="#111827" stroke-width="10" stroke-miterlimit="10" stroke-linecap="round" stroke-linejoin="round"/>
<path d="M423.355 214.619V171.218L522.723 29.0825H582.79V168.077H608.576V214.619H582.79V255.5H529.016V214.619H423.355ZM532.79 88.2011L479.965 168.077H532.79V88.2011Z" fill="#111827" stroke="#111827" stroke-width="10" stroke-miterlimit="10" stroke-linecap="round" stroke-linejoin="round"/>
<path d="M237.98 36.63C251.92 15.873 274.4 5.5 305.432 5.5C336.453 5.5 358.944 15.873 372.884 36.63C386.824 57.3869 393.794 85.79 393.794 121.85C393.794 158.325 386.824 186.946 372.884 207.703C358.944 228.46 336.453 238.833 305.432 238.833C274.4 238.833 251.92 228.46 237.98 207.703C224.04 186.946 217.07 158.336 217.07 121.85C217.059 85.8009 224.029 57.3869 237.98 36.63ZM334.042 72.9519C329.428 61.5318 319.895 55.8163 305.421 55.8163C290.958 55.8163 281.414 61.5318 276.8 72.9519C272.186 84.383 269.884 100.679 269.884 121.85C269.884 136.106 270.724 147.897 272.404 157.223C274.084 166.549 277.487 174.097 282.624 179.867C287.762 185.637 295.364 188.517 305.421 188.517C315.489 188.517 323.08 185.637 328.218 179.867C333.355 174.108 336.758 166.56 338.438 157.223C340.118 147.897 340.958 136.106 340.958 121.85C340.969 100.679 338.656 84.383 334.042 72.9519Z" fill="white" stroke="#111827" stroke-width="10" stroke-miterlimit="10" stroke-linecap="round" stroke-linejoin="round"/>
<path d="M237.98 52.3585C251.92 31.6015 274.4 21.2285 305.432 21.2285C336.453 21.2285 358.944 31.6015 372.884 52.3585C386.824 73.1154 393.794 101.519 393.794 137.579C393.794 174.053 386.824 202.675 372.884 223.432C358.944 244.189 336.453 254.562 305.432 254.562C274.4 254.562 251.92 244.189 237.98 223.432C224.04 202.675 217.07 174.064 217.07 137.579C217.059 101.519 224.029 73.1154 237.98 52.3585ZM334.042 88.6804C329.428 77.2603 319.895 71.5448 305.421 71.5448C290.958 71.5448 281.414 77.2603 276.8 88.6804C272.186 100.111 269.884 116.407 269.884 137.579C269.884 151.835 270.724 163.626 272.404 172.952C274.084 182.278 277.487 189.826 282.624 195.596C287.762 201.366 295.364 204.245 305.421 204.245C315.489 204.245 323.08 201.366 328.218 195.596C333.355 189.837 336.758 182.289 338.438 172.952C340.118 163.626 340.958 151.835 340.958 137.579C340.969 116.407 338.656 100.101 334.042 88.6804Z" fill="#111827" stroke="#111827" stroke-width="10" stroke-miterlimit="10" stroke-linecap="round" stroke-linejoin="round"/>
<path d="M350.656 110.234C350.362 110.234 350.133 110.474 350.133 110.757C350.133 111.052 350.373 111.281 350.656 111.281C350.94 111.281 351.18 111.041 351.18 110.757C351.191 110.463 350.951 110.234 350.656 110.234Z" fill="white"/>
<path d="M379.684 156.187C379.389 156.187 379.16 156.427 379.16 156.711C379.16 156.994 379.4 157.234 379.684 157.234C379.978 157.234 380.207 156.994 380.207 156.711C380.207 156.427 379.978 156.187 379.684 156.187Z" fill="white"/>
<path d="M258.434 39.7385C258.729 39.7385 258.958 39.4986 258.958 39.215C258.958 38.9205 258.718 38.6914 258.434 38.6914C258.15 38.6914 257.911 38.9314 257.911 39.215C257.9 39.4986 258.14 39.7385 258.434 39.7385Z" fill="white"/>
<path d="M226.496 138.746C226.202 138.746 225.973 138.986 225.973 139.27C225.973 139.553 226.213 139.793 226.496 139.793C226.791 139.793 227.02 139.553 227.02 139.27C227.02 138.986 226.791 138.746 226.496 138.746Z" fill="white"/>
<path d="M353.848 179.398C354.137 179.398 354.371 179.164 354.371 178.875C354.371 178.585 354.137 178.351 353.848 178.351C353.559 178.351 353.324 178.585 353.324 178.875C353.324 179.164 353.559 179.398 353.848 179.398Z" fill="white"/>
<path d="M346.86 79.093C346.565 79.093 346.336 79.333 346.336 79.6166C346.336 79.9111 346.576 80.1401 346.86 80.1401C347.143 80.1401 347.383 79.9002 347.383 79.6166C347.394 79.333 347.154 79.093 346.86 79.093Z" fill="white"/>
<path d="M233.512 99.3916C233.217 99.3916 232.988 99.6316 232.988 99.9152C232.988 100.21 233.228 100.439 233.512 100.439C233.795 100.439 234.035 100.199 234.035 99.9152C234.035 99.6316 233.795 99.3916 233.512 99.3916Z" fill="white"/>
<path d="M311.945 235.375C311.651 235.375 311.422 235.615 311.422 235.899C311.422 236.194 311.662 236.423 311.945 236.423C312.24 236.423 312.469 236.183 312.469 235.899C312.469 235.605 312.229 235.375 311.945 235.375Z" fill="white"/>
<path d="M294.61 49.1626C294.315 49.1626 294.086 49.4026 294.086 49.6862C294.086 49.9807 294.326 50.2097 294.61 50.2097C294.893 50.2097 295.133 49.9698 295.133 49.6862C295.133 49.3917 294.904 49.1626 294.61 49.1626Z" fill="white"/>
<path d="M373.18 75.3845C372.885 75.3845 372.656 75.6245 372.656 75.9081C372.656 76.1917 372.896 76.4316 373.18 76.4316C373.463 76.4316 373.703 76.1917 373.703 75.9081C373.703 75.6245 373.463 75.3845 373.18 75.3845Z" fill="white"/>
<path d="M237.36 193.512C237.065 193.512 236.836 193.752 236.836 194.036C236.836 194.32 237.076 194.56 237.36 194.56C237.643 194.56 237.883 194.32 237.883 194.036C237.883 193.752 237.654 193.512 237.36 193.512Z" fill="white"/>
<path d="M251.551 135.506C251.256 135.506 251.027 135.746 251.027 136.03C251.027 136.324 251.267 136.553 251.551 136.553C251.845 136.553 252.074 136.313 252.074 136.03C252.085 135.746 251.845 135.506 251.551 135.506Z" fill="white"/>
<path d="M352.238 40.1531C351.944 40.1531 351.715 40.393 351.715 40.6766C351.715 40.9711 351.955 41.2002 352.238 41.2002C352.533 41.2002 352.762 40.9602 352.762 40.6766C352.762 40.393 352.533 40.1531 352.238 40.1531Z" fill="white"/>
<path d="M373.703 129.802C373.409 129.802 373.18 130.042 373.18 130.325C373.18 130.62 373.42 130.849 373.703 130.849C373.998 130.849 374.227 130.609 374.227 130.325C374.227 130.042 373.987 129.802 373.703 129.802Z" fill="white"/>
<path d="M320.977 209.306C320.682 209.306 320.453 209.546 320.453 209.83C320.453 210.114 320.693 210.354 320.977 210.354C321.26 210.354 321.5 210.114 321.5 209.83C321.5 209.546 321.271 209.306 320.977 209.306Z" fill="white"/>
<path d="M270.41 214.913C270.116 214.913 269.887 215.153 269.887 215.437C269.887 215.72 270.127 215.96 270.41 215.96C270.694 215.96 270.934 215.72 270.934 215.437C270.934 215.153 270.705 214.913 270.41 214.913Z" fill="white"/>
<path d="M264.586 187.001C264.292 187.001 264.062 187.241 264.062 187.524C264.062 187.819 264.302 188.048 264.586 188.048C264.87 188.048 265.11 187.808 265.11 187.524C265.11 187.241 264.87 187.001 264.586 187.001Z" fill="white"/>
<path d="M344.012 234.852C343.717 234.852 343.488 235.092 343.488 235.375C343.488 235.67 343.728 235.899 344.012 235.899C344.295 235.899 344.535 235.659 344.535 235.375C344.535 235.081 344.306 234.852 344.012 234.852Z" fill="white"/>
<path d="M269.883 83.1831C269.588 83.1831 269.359 83.4231 269.359 83.7067C269.359 84.0012 269.599 84.2302 269.883 84.2302C270.167 84.2302 270.407 83.9903 270.407 83.7067C270.407 83.4231 270.177 83.1831 269.883 83.1831Z" fill="white"/>
<path d="M367.477 206.678C367.182 206.678 366.953 206.918 366.953 207.201C366.953 207.485 367.193 207.725 367.477 207.725C367.76 207.725 368 207.485 368 207.201C368 206.918 367.771 206.678 367.477 206.678Z" fill="white"/>
<path d="M287.193 217.705L288.567 223.769L294.621 225.143L288.567 226.518L287.193 232.572L285.808 226.518L279.754 225.143L285.808 223.769L287.193 217.705Z" fill="white" stroke="#111827" stroke-width="4.5933" stroke-miterlimit="10" stroke-linecap="round" stroke-linejoin="round"/>
<path d="M269.421 54.5725L267.676 61.1497L272.846 65.5563L266.269 63.8112L261.862 68.9922L263.608 62.415L258.438 58.0084L265.004 59.7536L269.421 54.5725Z" fill="white" stroke="#111827" stroke-width="4.5933" stroke-miterlimit="10" stroke-linecap="round" stroke-linejoin="round"/>
<path d="M355.141 241.898C347.997 226.147 344.016 208.662 344.016 190.251C344.016 151.191 361.904 116.309 389.947 93.3594" stroke="white" stroke-width="2.7564" stroke-miterlimit="10" stroke-linecap="round" stroke-linejoin="round"/>
<path d="M325.855 253.187C332.422 224.369 349.176 197.744 375.114 179.212C380.655 175.253 386.403 171.817 392.315 168.883" stroke="white" stroke-width="2.7564" stroke-miterlimit="10" stroke-linecap="round" stroke-linejoin="round"/>
<path d="M227.875 205.15C242.404 214.934 255.111 227.925 264.819 243.872C265.68 245.279 266.498 246.697 267.295 248.126" stroke="white" stroke-width="2.7564" stroke-miterlimit="10" stroke-linecap="round" stroke-linejoin="round"/>
<path d="M382.672 69.7447C357.072 65.0653 332.715 52.3799 313.638 31.8629C310.333 28.3071 307.279 24.6204 304.465 20.8027" stroke="white" stroke-width="2.7564" stroke-miterlimit="10" stroke-linecap="round" stroke-linejoin="round"/>
<path d="M238.859 50.5256C254.239 90.2289 248.96 136.782 220.862 172.799C220.404 173.388 219.946 173.966 219.477 174.544" stroke="white" stroke-width="2.7564" stroke-miterlimit="10" stroke-linecap="round" stroke-linejoin="round"/>
<path d="M355.977 141.744C356.166 140.579 355.375 139.481 354.209 139.292C353.044 139.102 351.946 139.894 351.757 141.059C351.567 142.225 352.359 143.323 353.524 143.512C354.69 143.701 355.788 142.91 355.977 141.744Z" fill="white" stroke="#111827" stroke-width="4.5933" stroke-miterlimit="10" stroke-linecap="round" stroke-linejoin="round"/>
<path d="M328.868 244.145C330.049 244.145 331.006 243.187 331.006 242.007C331.006 240.826 330.049 239.869 328.868 239.869C327.688 239.869 326.73 240.826 326.73 242.007C326.73 243.187 327.688 244.145 328.868 244.145Z" fill="white" stroke="#111827" stroke-width="4.5933" stroke-miterlimit="10" stroke-linecap="round" stroke-linejoin="round"/>
<path d="M237.364 214.422C238.545 214.422 239.502 213.465 239.502 212.284C239.502 211.103 238.545 210.146 237.364 210.146C236.184 210.146 235.227 211.103 235.227 212.284C235.227 213.465 236.184 214.422 237.364 214.422Z" fill="white" stroke="#111827" stroke-width="4.5933" stroke-miterlimit="10" stroke-linecap="round" stroke-linejoin="round"/>
<path d="M229.787 146.73L234.019 151.289L239.942 149.435L235.394 153.667L237.248 159.601L233.016 155.041L227.082 156.896L231.63 152.663L229.787 146.73Z" fill="white" stroke="#111827" stroke-width="4.5933" stroke-miterlimit="10" stroke-linecap="round" stroke-linejoin="round"/>
<path d="M233.516 157.888C236.124 157.888 238.239 155.773 238.239 153.165C238.239 150.557 236.124 148.442 233.516 148.442C230.908 148.442 228.793 150.557 228.793 153.165C228.793 155.773 230.908 157.888 233.516 157.888Z" stroke="white" stroke-width="2.756" stroke-miterlimit="10"/>
<path d="M325.016 37.677L331.332 44.4724L340.199 41.7128L333.393 48.0282L336.153 56.896L329.837 50.0897L320.98 52.8493L327.776 46.5339L325.016 37.677Z" fill="white" stroke="#111827" stroke-width="4.5933" stroke-miterlimit="10" stroke-linecap="round" stroke-linejoin="round"/>
<path d="M331.71 54.4773C335.497 53.8626 338.07 50.2936 337.455 46.5058C336.84 42.718 333.271 40.1457 329.483 40.7605C325.696 41.3752 323.123 44.9442 323.738 48.732C324.353 52.5198 327.922 55.0921 331.71 54.4773Z" stroke="white" stroke-width="2.7564" stroke-miterlimit="10" stroke-linecap="round" stroke-linejoin="round"/>
<path d="M372.259 103.689L373.634 109.743L379.687 111.117L373.634 112.491L372.259 118.556L370.874 112.491L364.82 111.117L370.874 109.743L372.259 103.689Z" fill="white" stroke="#111827" stroke-width="4.5933" stroke-miterlimit="10" stroke-linecap="round" stroke-linejoin="round"/>
<path d="M372.259 115.883C374.891 115.883 377.025 113.749 377.025 111.117C377.025 108.484 374.891 106.35 372.259 106.35C369.626 106.35 367.492 108.484 367.492 111.117C367.492 113.749 369.626 115.883 372.259 115.883Z" stroke="white" stroke-width="2.756" stroke-miterlimit="10"/>
<path d="M371.034 180.26L370.096 183.815L372.889 186.204L369.333 185.255L366.944 188.058L367.893 184.503L365.09 182.114L368.646 183.052L371.034 180.26Z" fill="white" stroke="#111827" stroke-width="4.5933" stroke-miterlimit="10" stroke-linecap="round" stroke-linejoin="round"/>
<path d="M5.42969 198.901V155.5L104.797 13.3643H164.864V152.358H190.65V198.901H164.864V239.782H111.091V198.901H5.42969ZM114.865 72.4829L62.0396 152.358H114.865V72.4829Z" fill="white" stroke="#111827" stroke-width="10" stroke-miterlimit="10" stroke-linecap="round" stroke-linejoin="round"/>
<path d="M5.42969 214.618V171.218L104.797 29.082H164.864V168.076H190.65V214.618H164.864V255.5H111.091V214.618H5.42969ZM114.865 88.2006L62.0396 168.076H114.865V88.2006Z" fill="#111827" stroke="#111827" stroke-width="10" stroke-miterlimit="10" stroke-linecap="round" stroke-linejoin="round"/>
</svg>
