<svg xmlns="http://www.w3.org/2000/svg" width="420" height="252" viewBox="0 0 420 252"><rect width="100%" height="100%" fill="#DDDDDD"/><path fill="#999999" d="M91.505 130.985h12.32v-13.24q0-1.88.25-4.15l-12.57 17.39Zm18.34 0h5.09v4q0 .56-.36.97-.36.41-1.04.41h-3.69v9.88h-6.02v-9.88h-17.08q-.7 0-1.23-.44-.54-.43-.68-1.08l-.72-3.5 19.18-25.62h6.55v25.26Zm23.6 8.82h10.39q1.12 0 1.78.63.66.63.66 1.67v4.14h-27.78v-2.3q0-.7.29-1.47.3-.77.94-1.38l12.29-12.32q1.54-1.57 2.76-3 1.22-1.43 2.03-2.83.81-1.4 1.25-2.84.43-1.44.43-3.04 0-1.45-.42-2.56-.42-1.1-1.19-1.86t-1.85-1.13q-1.07-.38-2.42-.38-1.23 0-2.28.35-1.05.35-1.86.98t-1.37 1.47q-.56.84-.84 1.85-.48 1.28-1.24 1.7-.75.42-2.18.2l-3.64-.64q.42-2.92 1.62-5.11 1.21-2.2 3.01-3.67 1.81-1.47 4.15-2.21 2.34-.75 5.02-.75 2.8 0 5.13.83 2.32.83 3.97 2.34 1.66 1.51 2.58 3.64.92 2.13.92 4.73 0 2.24-.65 4.14-.66 1.91-1.77 3.64-1.1 1.74-2.59 3.36-1.48 1.63-3.11 3.31l-9.12 9.32q1.31-.39 2.61-.6 1.31-.21 2.48-.21Zm46.48-13.8q0 5.29-1.13 9.19-1.14 3.91-3.14 6.46t-4.73 3.79q-2.73 1.25-5.89 1.25-3.17 0-5.87-1.25-2.7-1.24-4.69-3.79-1.99-2.55-3.11-6.46-1.12-3.9-1.12-9.19 0-5.32 1.12-9.22 1.12-3.89 3.11-6.44 1.99-2.54 4.69-3.79t5.87-1.25q3.16 0 5.89 1.25 2.73 1.25 4.73 3.79 2 2.55 3.14 6.44 1.13 3.9 1.13 9.22Zm-7.14 0q0-4.4-.64-7.28-.65-2.89-1.72-4.6-1.08-1.7-2.48-2.39-1.4-.69-2.91-.69-1.49 0-2.87.69-1.39.69-2.45 2.39-1.07 1.71-1.7 4.6-.63 2.88-.63 7.28 0 4.39.63 7.28.63 2.88 1.7 4.59 1.06 1.71 2.45 2.39 1.38.69 2.87.69 1.51 0 2.91-.69 1.4-.68 2.48-2.39 1.07-1.71 1.72-4.59.64-2.89.64-7.28Zm51.61 10.97-3.67 3.61-9.49-9.49-9.58 9.55-3.67-3.61 9.58-9.61-9.13-9.12 3.64-3.64 9.13 9.12 9.07-9.07 3.7 3.64-9.1 9.1 9.52 9.52Zm33.71 2.83h10.39q1.12 0 1.77.63.66.63.66 1.67v4.14h-27.77v-2.3q0-.7.29-1.47t.94-1.38l12.29-12.32q1.54-1.57 2.76-3 1.22-1.43 2.03-2.83.81-1.4 1.24-2.84.44-1.44.44-3.04 0-1.45-.42-2.56-.42-1.1-1.19-1.86t-1.85-1.13q-1.08-.38-2.42-.38-1.23 0-2.28.35-1.05.35-1.87.98-.81.63-1.37 1.47t-.84 1.85q-.47 1.28-1.23 1.7-.76.42-2.18.2l-3.64-.64q.42-2.92 1.62-5.11 1.2-2.2 3.01-3.67 1.81-1.47 4.14-2.21 2.34-.75 5.03-.75 2.8 0 5.12.83 2.33.83 3.98 2.34 1.65 1.51 2.58 3.64.92 2.13.92 4.73 0 2.24-.66 4.14-.66 1.91-1.76 3.64-1.11 1.74-2.59 3.36-1.49 1.63-3.11 3.31l-9.13 9.32q1.32-.39 2.62-.6 1.3-.21 2.48-.21Zm28.19-27.78-1.42 8.43q1.34-.28 2.57-.4 1.23-.13 2.38-.13 3.19 0 5.63.95t4.09 2.63q1.65 1.68 2.49 3.94.84 2.25.84 4.86 0 3.22-1.13 5.88-1.14 2.66-3.15 4.55-2.02 1.89-4.78 2.92-2.76 1.04-6 1.04-1.91 0-3.62-.39-1.7-.4-3.2-1.05-1.5-.66-2.77-1.52-1.28-.85-2.29-1.8l2.13-2.94q.67-.95 1.77-.95.7 0 1.42.44.73.45 1.67.98.94.54 2.21.98 1.28.45 3.07.45 1.9 0 3.36-.61 1.45-.62 2.42-1.73.97-1.1 1.46-2.63.49-1.52.49-3.32 0-3.3-1.92-5.16-1.92-1.86-5.67-1.86-2.89 0-5.91 1.06l-4.31-1.23 3.36-19.66h19.99v2.94q0 1.49-.92 2.41-.93.92-3.14.92h-11.12Zm36.77 27.78h10.39q1.12 0 1.77.63.66.63.66 1.67v4.14h-27.77v-2.3q0-.7.29-1.47t.94-1.38l12.29-12.32q1.54-1.57 2.76-3 1.22-1.43 2.03-2.83.81-1.4 1.24-2.84.44-1.44.44-3.04 0-1.45-.42-2.56-.42-1.1-1.19-1.86t-1.85-1.13q-1.08-.38-2.42-.38-1.23 0-2.28.35-1.05.35-1.87.98-.81.63-1.37 1.47t-.84 1.85q-.47 1.28-1.23 1.7-.76.42-2.18.2l-3.64-.64q.42-2.92 1.62-5.11 1.2-2.2 3.01-3.67 1.81-1.47 4.14-2.21 2.34-.75 5.03-.75 2.8 0 5.12.83 2.33.83 3.98 2.34 1.65 1.51 2.58 3.64.92 2.13.92 4.73 0 2.24-.66 4.14-.66 1.91-1.76 3.64-1.11 1.74-2.59 3.36-1.49 1.63-3.11 3.31l-9.13 9.32q1.32-.39 2.62-.6 1.3-.21 2.48-.21Z"/></svg>