<svg xmlns="http://www.w3.org/2000/svg" width="870" height="260" viewBox="0 0 870 260"><rect width="100%" height="100%" fill="#DDDDDD"/><path fill="#999999" d="M206.155 161.39q3.5 0 6.15-1 2.64-1.01 4.45-2.79 1.82-1.79 2.74-4.26.92-2.47.92-5.34 0-6.85-3.8-10.36-3.79-3.5-10.46-3.5-6.67 0-10.47 3.5-3.79 3.51-3.79 10.36 0 2.87.92 5.34.92 2.47 2.73 4.26 1.81 1.78 4.45 2.79 2.65 1 6.16 1Zm0-63.19q-3.17 0-5.47.98-2.3.97-3.82 2.61t-2.24 3.77q-.72 2.13-.72 4.48 0 2.48.6 4.81.61 2.32 2.04 4.14 1.44 1.81 3.8 2.9 2.36 1.09 5.81 1.09 3.45 0 5.8-1.09 2.36-1.09 3.8-2.9 1.44-1.82 2.04-4.14.6-2.33.6-4.81 0-2.35-.74-4.48-.75-2.13-2.25-3.77-1.49-1.64-3.79-2.61-2.3-.98-5.46-.98Zm14.03 30.01q7.59 2.48 11.21 7.57 3.62 5.08 3.62 12.44 0 5.53-2.1 10.01-2.1 4.48-5.89 7.65-3.8 3.16-9.12 4.88-5.31 1.73-11.75 1.73t-11.76-1.73q-5.32-1.72-9.12-4.88-3.79-3.17-5.89-7.65-2.1-4.48-2.1-10.01 0-7.36 3.62-12.44 3.63-5.09 11.22-7.57-6.04-2.53-9.06-7.18-3.02-4.66-3.02-11.22 0-4.71 1.93-8.79 1.92-4.09 5.37-7.1 3.45-3.02 8.25-4.72 4.81-1.69 10.56-1.69 5.75 0 10.55 1.69 4.8 1.7 8.25 4.72 3.45 3.01 5.37 7.1 1.93 4.08 1.93 8.79 0 6.56-3.02 11.22-3.02 4.65-9.05 7.18Zm24.66-39.79h57.45v6.16q0 2.76-.58 4.45-.58 1.7-1.15 2.85l-31.51 64.86q-.98 2.01-2.76 3.42-1.78 1.41-4.77 1.41h-10.3l32.15-63.54q1.09-1.95 2.15-3.59 1.07-1.64 2.39-3.14h-39.79q-1.32 0-2.3-.97-.98-.98-.98-2.3v-9.61ZM370.025 130q0 10.86-2.33 18.89-2.33 8.02-6.44 13.25t-9.72 7.79q-5.6 2.56-12.1 2.56t-12.05-2.56q-5.54-2.56-9.63-7.79-4.08-5.23-6.38-13.25-2.3-8.03-2.3-18.89 0-10.93 2.3-18.92 2.3-7.99 6.38-13.23 4.09-5.23 9.63-7.79 5.55-2.55 12.05-2.55 6.5 0 12.1 2.55 5.61 2.56 9.72 7.79 4.11 5.24 6.44 13.23t2.33 18.92Zm-14.66 0q0-9.03-1.32-14.95-1.33-5.93-3.54-9.43-2.21-3.51-5.09-4.92-2.87-1.41-5.98-1.41-3.05 0-5.89 1.41-2.85 1.41-5.03 4.92-2.19 3.5-3.48 9.43-1.3 5.92-1.3 14.95 0 9.02 1.3 14.95 1.29 5.92 3.48 9.43 2.18 3.5 5.03 4.91 2.84 1.41 5.89 1.41 3.11 0 5.98-1.41 2.88-1.41 5.09-4.91 2.21-3.51 3.54-9.43 1.32-5.93 1.32-14.95Zm105.97 22.54-7.53 7.41-19.49-19.49-19.67 19.61-7.53-7.42 19.66-19.72-18.74-18.75 7.47-7.47 18.75 18.74 18.63-18.63 7.59 7.48-18.69 18.69 19.55 19.55Zm69.23 5.8h21.33q2.3 0 3.65 1.3 1.36 1.29 1.36 3.42v8.51h-57.04v-4.71q0-1.44.6-3.02.6-1.59 1.93-2.85l25.24-25.3q3.16-3.22 5.66-6.15 2.5-2.94 4.17-5.81 1.67-2.88 2.56-5.84.89-2.96.89-6.23 0-3-.86-5.27-.86-2.27-2.45-3.82-1.58-1.55-3.79-2.33t-4.97-.78q-2.53 0-4.69.72-2.16.72-3.82 2.02-1.67 1.29-2.82 3.01-1.15 1.73-1.73 3.8-.97 2.65-2.53 3.51-1.55.86-4.48.4l-7.48-1.32q.87-5.98 3.34-10.5 2.47-4.51 6.18-7.53 3.71-3.02 8.51-4.54t10.32-1.52q5.75 0 10.52 1.69 4.78 1.7 8.17 4.8 3.39 3.11 5.29 7.48 1.9 4.37 1.9 9.71 0 4.6-1.36 8.51-1.35 3.91-3.62 7.48-2.27 3.56-5.32 6.9-3.04 3.33-6.38 6.78l-18.74 19.15q2.7-.8 5.37-1.23 2.68-.44 5.09-.44Zm86.31-69.92-24.67 30.19-2.87 3.57q2.41-1.21 5.2-1.87 2.79-.66 6.01-.66 4.71 0 9.17 1.55t7.85 4.69q3.39 3.13 5.46 7.79t2.07 10.86q0 5.81-2.13 10.9-2.12 5.09-5.98 8.88-3.85 3.8-9.28 5.98-5.44 2.19-11.99 2.19-6.67 0-11.96-2.13-5.29-2.12-9.03-5.95-3.74-3.82-5.72-9.2-1.98-5.37-1.98-11.93 0-5.87 2.38-12.05 2.39-6.18 7.39-12.85l19.84-26.62q1.03-1.38 3.02-2.36 1.98-.98 4.57-.98h12.65Zm-21.45 72.45q3.39 0 6.24-1.15t4.89-3.22q2.04-2.07 3.19-4.85 1.15-2.79 1.15-6.07 0-3.56-1.09-6.41-1.1-2.85-3.11-4.83-2.01-1.99-4.83-3.02-2.82-1.04-6.21-1.04t-6.15 1.15q-2.76 1.16-4.72 3.2-1.95 2.04-3.04 4.83-1.1 2.78-1.1 6 0 3.45.95 6.3.95 2.85 2.82 4.86 1.87 2.01 4.63 3.13t6.38 1.12Zm97.29-30.87q0 10.86-2.33 18.89-2.33 8.02-6.44 13.25t-9.72 7.79q-5.6 2.56-12.1 2.56t-12.05-2.56q-5.54-2.56-9.63-7.79-4.08-5.23-6.38-13.25-2.3-8.03-2.3-18.89 0-10.93 2.3-18.92 2.3-7.99 6.38-13.23 4.09-5.23 9.63-7.79 5.55-2.55 12.05-2.55 6.5 0 12.1 2.55 5.61 2.56 9.72 7.79 4.11 5.24 6.44 13.23t2.33 18.92Zm-14.66 0q0-9.03-1.32-14.95-1.33-5.93-3.54-9.43-2.21-3.51-5.09-4.92-2.87-1.41-5.98-1.41-3.05 0-5.89 1.41-2.85 1.41-5.03 4.92-2.19 3.5-3.48 9.43-1.3 5.92-1.3 14.95 0 9.02 1.3 14.95 1.29 5.92 3.48 9.43 2.18 3.5 5.03 4.91 2.84 1.41 5.89 1.41 3.11 0 5.98-1.41 2.88-1.41 5.09-4.91 2.21-3.51 3.54-9.43 1.32-5.93 1.32-14.95Z"/></svg>