<svg width="45" height="44" viewBox="0 0 45 44" fill="none" xmlns="http://www.w3.org/2000/svg">
<path d="M15.4588 26.9121L17.431 22.8709H16.9856L15.9466 20.7981H15.1196V17.9065C11.7267 16.9137 8.05811 16.6349 5.49224 16.5479V34.7505C11.345 34.7854 17.2613 35.935 21.4388 40.9516C21.3964 39.8194 21.3752 38.4434 21.354 36.9627H20.4634L15.4588 26.9121ZM4.11388 35.8305V20.2058C3.49891 20.2232 0.827016 20.2232 0 20.2232V40.2201C7.12506 39.5581 15.162 39.5756 21.1419 43.7735C18.4064 37.3285 11.2814 35.7608 4.11388 35.8305ZM38.8698 34.9596V16.7569C36.3039 16.844 32.6353 17.1227 29.2425 18.1155V20.7806H28.4154L27.3764 22.8535H26.9311L28.9032 26.8946L23.9199 36.9105H23.0292C23.008 38.4956 22.9868 39.9588 22.9444 41.1433C27.1007 36.1615 33.017 35.0118 38.8698 34.9596ZM44.362 20.4497C43.535 20.4671 40.8631 20.4671 40.2481 20.4323V36.057C33.0595 35.9873 25.9556 37.555 23.2201 43.9999C29.2 39.802 37.2369 39.802 44.362 40.4465V20.4497Z" fill="#5F3EED"/>
<path d="M35.4548 13.5693L35.4124 7.75139L39.2506 6.2882L22.1377 0L5.13086 6.47982L12.9345 9.35393L12.9769 14.1789H31.4681L31.4894 9.2494L34.9246 7.94299L34.9671 13.5867C34.7126 13.6738 34.543 13.8654 34.543 14.1093C34.543 14.4228 34.8398 14.6667 35.2215 14.6667C35.6032 14.6667 35.9001 14.4228 35.9001 14.1093C35.9001 13.848 35.7093 13.639 35.4548 13.5693ZM16.1577 15.2589H28.1813V19.9272H27.6936L26.6545 22H25.361L27.736 26.9121L23.1768 36.057H22.6254V28.5495C23.1556 28.3927 23.5585 27.9747 23.5585 27.4695C23.5585 26.8424 22.9435 26.3373 22.1801 26.3373C21.4167 26.3373 20.8018 26.8424 20.8018 27.4695C20.8018 27.9573 21.1835 28.3927 21.7348 28.5495V36.057H21.1835L16.6243 26.9121L18.9993 22H17.7057L16.6667 19.9272H16.179V15.2589H16.1577Z" fill="#F4B826"/>
</svg>
