<svg width="10" height="10" viewBox="0 0 10 10" fill="none" xmlns="http://www.w3.org/2000/svg">
<path d="M9.76563 2.46828L7.53122 0.23437C7.45693 0.160067 7.36873 0.101125 7.27166 0.0609115C7.1746 0.0206979 7.07056 0 6.96549 0C6.86042 0 6.75638 0.0206979 6.65931 0.0609115C6.56224 0.101125 6.47405 0.160067 6.39976 0.23437L0.234495 6.39963C0.159888 6.47365 0.100737 6.56176 0.0604813 6.65883C0.0202257 6.75591 -0.000331707 6.86002 4.04732e-06 6.96511V9.19953C4.04732e-06 9.41169 0.0842863 9.61517 0.23431 9.76519C0.384333 9.91521 0.587808 9.9995 0.799973 9.9995H9.19965C9.30573 9.9995 9.40747 9.95736 9.48248 9.88234C9.5575 9.80733 9.59964 9.70559 9.59964 9.59951C9.59964 9.49343 9.5575 9.39169 9.48248 9.31668C9.40747 9.24167 9.30573 9.19953 9.19965 9.19953H4.16584L9.76563 3.59974C9.83993 3.52545 9.89888 3.43726 9.93909 3.34019C9.9793 3.24312 10 3.13908 10 3.03401C10 2.92894 9.9793 2.8249 9.93909 2.72784C9.89888 2.63077 9.83993 2.54257 9.76563 2.46828ZM3.03439 9.19953H0.799973V6.96511L5.19981 2.56528L7.43422 4.7997L3.03439 9.19953ZM7.9997 4.23422L5.76578 1.9998L6.96574 0.799849L9.19965 3.03426L7.9997 4.23422Z" fill="#555555"/>
</svg>
