<svg width="12" height="14" viewBox="0 0 12 14" fill="none" xmlns="http://www.w3.org/2000/svg">
<path d="M9.91296 9.89953L5.81242 14L1.71192 9.89953C-0.552735 7.63483 -0.552735 3.96314 1.71192 1.69849C3.97656 -0.566162 7.64826 -0.566162 9.91296 1.69849C12.1776 3.96314 12.1776 7.63483 9.91296 9.89953ZM5.81242 8.37633C7.23582 8.37633 8.38976 7.22239 8.38976 5.799C8.38976 4.37557 7.23582 3.22166 5.81242 3.22166C4.389 3.22166 3.23509 4.37557 3.23509 5.799C3.23509 7.22239 4.389 8.37633 5.81242 8.37633ZM5.81242 7.08766C5.10069 7.08766 4.52376 6.51073 4.52376 5.799C4.52376 5.08729 5.10069 4.51033 5.81242 4.51033C6.52415 4.51033 7.10109 5.08729 7.10109 5.799C7.10109 6.51073 6.52415 7.08766 5.81242 7.08766Z" fill="#795DED"/>
</svg>
