<svg width="60" height="60" viewBox="0 0 60 60" fill="none" xmlns="http://www.w3.org/2000/svg">
<circle cx="30" cy="30" r="30" fill="#F2ECFE"/>
<path opacity="0.4" d="M41.7335 29.9982C41.7335 32.1686 40.8713 34.2501 39.3366 35.7848C37.8019 37.3194 35.7204 38.1816 33.5501 38.1816H24.5483C23.7361 38.1806 22.9333 38.0069 22.1934 37.672C21.4534 37.337 20.7931 36.8486 20.2563 36.239C19.7195 35.6294 19.3185 34.9127 19.0798 34.1363C18.8412 33.3599 18.7704 32.5416 18.8721 31.7357C18.9739 30.9299 19.2458 30.1549 19.6699 29.4622C20.094 28.7694 20.6606 28.1748 21.3321 27.7178C22.0035 27.2607 22.7645 26.9517 23.5645 26.8112C24.3645 26.6707 25.1852 26.702 25.9722 26.9028V26.9131C26.6883 25.1566 27.9924 23.7035 29.6613 22.8021C31.3303 21.9007 33.2606 21.6071 35.1221 21.9715C36.9836 22.3359 38.6607 23.3356 39.8666 24.7997C41.0726 26.2638 41.7325 28.1014 41.7335 29.9982Z" fill="#B39EF9"/>
<path d="M42.5517 29.9983C42.5568 31.9471 41.9246 33.8442 40.7513 35.4003C40.6867 35.4863 40.6058 35.5587 40.5132 35.6134C40.4206 35.6681 40.3182 35.704 40.2117 35.7191C40.1052 35.7342 39.9968 35.7282 39.8926 35.7014C39.7885 35.6746 39.6906 35.6276 39.6046 35.563C39.5187 35.4984 39.4463 35.4174 39.3916 35.3249C39.3369 35.2323 39.3009 35.1298 39.2858 35.0233C39.2707 34.9168 39.2767 34.8084 39.3035 34.7043C39.3303 34.6001 39.3774 34.5022 39.442 34.4163C40.4023 33.144 40.9197 31.5923 40.915 29.9983C40.915 28.0449 40.139 26.1716 38.7578 24.7904C37.3766 23.4092 35.5033 22.6332 33.55 22.6332C31.5966 22.6332 29.7233 23.4092 28.3421 24.7904C26.9609 26.1716 26.1849 28.0449 26.1849 29.9983C26.1849 30.2153 26.0987 30.4235 25.9452 30.5769C25.7917 30.7304 25.5836 30.8166 25.3666 30.8166C25.1495 30.8166 24.9414 30.7304 24.7879 30.5769C24.6344 30.4235 24.5482 30.2153 24.5482 29.9983C24.5478 29.1724 24.6611 28.3505 24.8848 27.5555C24.7733 27.5432 24.6607 27.5432 24.5482 27.5432C23.246 27.5432 21.9971 28.0606 21.0763 28.9814C20.1555 29.9022 19.6382 31.1511 19.6382 32.4533C19.6382 33.7555 20.1555 35.0044 21.0763 35.9252C21.9971 36.846 23.246 37.3633 24.5482 37.3633H27.0032C27.2203 37.3633 27.4284 37.4495 27.5819 37.603C27.7354 37.7565 27.8216 37.9646 27.8216 38.1817C27.8216 38.3987 27.7354 38.6068 27.5819 38.7603C27.4284 38.9138 27.2203 39 27.0032 39H24.5482C23.6482 39.0002 22.7579 38.8148 21.9327 38.4555C21.1076 38.0961 20.3654 37.5705 19.7525 36.9114C19.1396 36.2524 18.6692 35.474 18.3707 34.625C18.0721 33.7759 17.9519 32.8745 18.0174 31.9769C18.0829 31.0793 18.3327 30.2048 18.7513 29.4081C19.17 28.6114 19.7484 27.9096 20.4504 27.3464C21.1525 26.7833 21.9631 26.371 22.8317 26.1352C23.7002 25.8994 24.6081 25.8453 25.4985 25.9761C26.4052 24.1626 27.8976 22.7084 29.734 21.8489C31.5703 20.9894 33.643 20.775 35.6164 21.2404C37.5898 21.7058 39.3482 22.8239 40.6069 24.4134C41.8657 26.0029 42.5509 27.9707 42.5517 29.9983ZM33.3106 29.4193C33.2346 29.3432 33.1443 29.2828 33.045 29.2417C32.9456 29.2005 32.8392 29.1793 32.7316 29.1793C32.6241 29.1793 32.5176 29.2005 32.4182 29.2417C32.3189 29.2828 32.2286 29.3432 32.1526 29.4193L28.8793 32.6926C28.8032 32.7687 28.7429 32.8589 28.7018 32.9583C28.6606 33.0576 28.6395 33.1641 28.6395 33.2716C28.6395 33.3791 28.6606 33.4856 28.7018 33.585C28.7429 33.6843 28.8032 33.7746 28.8793 33.8506C29.0328 34.0042 29.2411 34.0904 29.4583 34.0904C29.5658 34.0904 29.6723 34.0692 29.7716 34.0281C29.8709 33.9869 29.9612 33.9266 30.0372 33.8506L31.9133 31.9735V38.1817C31.9133 38.3987 31.9995 38.6068 32.153 38.7603C32.3064 38.9138 32.5146 39 32.7316 39C32.9487 39 33.1568 38.9138 33.3103 38.7603C33.4637 38.6068 33.55 38.3987 33.55 38.1817V31.9735L35.426 33.8506C35.502 33.9266 35.5923 33.9869 35.6916 34.0281C35.791 34.0692 35.8974 34.0904 36.005 34.0904C36.1125 34.0904 36.219 34.0692 36.3183 34.0281C36.4177 33.9869 36.5079 33.9266 36.5839 33.8506C36.66 33.7746 36.7203 33.6843 36.7614 33.585C36.8026 33.4856 36.8238 33.3791 36.8238 33.2716C36.8238 33.1641 36.8026 33.0576 36.7614 32.9583C36.7203 32.8589 36.66 32.7687 36.5839 32.6926L33.3106 29.4193Z" fill="#795DED"/>
</svg>
